{
  "accessors": [
    {
      "bufferView": 2,
      "componentType": 5126,
      "count": 5804,
      "max": [
        0.07811803370714188,
        0.02199999988079071,
        0.22337503731250763
      ],
      "min": [
        -0.08997061848640442,
        -0.02199999988079071,
        -0.14100179076194763
      ],
      "type": "VEC3"
    },
    {
      "bufferView": 2,
      "byteOffset": 69648,
      "componentType": 5126,
      "count": 5804,
      "max": [
        1.0,
        1.0,
        1.0
      ],
      "min": [
        -1.0,
        -1.0,
        -1.0
      ],
      "type": "VEC3"
    },
    {
      "bufferView": 1,
      "componentType": 5126,
      "count": 5804,
      "max": [
        1.0,
        1.0
      ],
      "min": [
        0.0,
        0.0
      ],
      "type": "VEC2"
    },
    {
      "bufferView": 0,
      "componentType": 5125,
      "count": 22044,
      "type": "SCALAR"
    },
    {
      "bufferView": 2,
      "byteOffset": 139296,
      "componentType": 5126,
      "count": 183,
      "max": [
        0.2542482316493988,
        0.0,
        0.32065922021865845
      ],
      "min": [
        -0.25421375036239624,
        0.0,
        -0.16907227039337158
      ],
      "type": "VEC3"
    },
    {
      "bufferView": 2,
      "byteOffset": 141492,
      "componentType": 5126,
      "count": 183,
      "max": [
        0.0,
        1.0,
        -0.0
      ],
      "min": [
        0.0,
        -1.0,
        -0.0
      ],
      "type": "VEC3"
    },
    {
      "bufferView": 1,
      "byteOffset": 46432,
      "componentType": 5126,
      "count": 183,
      "max": [
        1.0,
        0.0
      ],
      "min": [
        0.0,
        0.0
      ],
      "type": "VEC2"
    },
    {
      "bufferView": 0,
      "byteOffset": 88176,
      "componentType": 5125,
      "count": 534,
      "type": "SCALAR"
    },
    {
      "bufferView": 2,
      "byteOffset": 143688,
      "componentType": 5126,
      "count": 6701,
      "max": [
        0.28841209411621094,
        0.02199999988079071,
        0.3627432584762573
      ],
      "min": [
        -0.28834637999534607,
        -0.02199999988079071,
        -0.19408169388771057
      ],
      "type": "VEC3"
    },
    {
      "bufferView": 2,
      "byteOffset": 224100,
      "componentType": 5126,
      "count": 6701,
      "max": [
        1.0,
        1.0,
        0.9940064549446106
      ],
      "min": [
        -1.0,
        -1.0,
        -1.0
      ],
      "type": "VEC3"
    },
    {
      "bufferView": 1,
      "byteOffset": 47896,
      "componentType": 5126,
      "count": 6701,
      "max": [
        1.0,
        1.0
      ],
      "min": [
        0.0,
        0.0
      ],
      "type": "VEC2"
    },
    {
      "bufferView": 0,
      "byteOffset": 90312,
      "componentType": 5125,
      "count": 24480,
      "type": "SCALAR"
    },
    {
      "bufferView": 2,
      "byteOffset": 304512,
      "componentType": 5126,
      "count": 4430,
      "max": [
        0.07919725775718689,
        0.02199999988079071,
        0.1839160919189453
      ],
      "min": [
        -0.11107427626848221,
        -0.02199999988079071,
        -0.1805071234703064
      ],
      "type": "VEC3"
    },
    {
      "bufferView": 2,
      "byteOffset": 357672,
      "componentType": 5126,
      "count": 4430,
      "max": [
        1.0,
        1.0,
        0.858235776424408
      ],
      "min": [
        -0.9999710321426392,
        -1.0,
        -0.9939541816711426
      ],
      "type": "VEC3"
    },
    {
      "bufferView": 1,
      "byteOffset": 101504,
      "componentType": 5126,
      "count": 4430,
      "max": [
        1.0,
        1.0
      ],
      "min": [
        0.0,
        0.0
      ],
      "type": "VEC2"
    },
    {
      "bufferView": 0,
      "byteOffset": 188232,
      "componentType": 5125,
      "count": 16476,
      "type": "SCALAR"
    }
  ],
  "asset": {
    "extras": {
      "author": "Shady Anders (https://sketchfab.com/ShadyAnders)",
      "license": "CC-BY-4.0 (http://creativecommons.org/licenses/by/4.0/)",
      "source": "https://sketchfab.com/3d-models/warner-bros-shield-2023-9d6556839b104d2e8d925e297c014d65",
      "title": "Warner Bros. Shield 2023"
    },
    "generator": "Sketchfab-15.30.0",
    "version": "2.0"
  },
  "bufferViews": [
    {
      "buffer": 0,
      "byteLength": 254136,
      "name": "floatBufferViews",
      "target": 34963
    },
    {
      "buffer": 0,
      "byteLength": 136944,
      "byteOffset": 254136,
      "byteStride": 8,
      "name": "floatBufferViews",
      "target": 34962
    },
    {
      "buffer": 0,
      "byteLength": 410832,
      "byteOffset": 391080,
      "byteStride": 12,
      "name": "floatBufferViews",
      "target": 34962
    }
  ],
  "buffers": [
    {
      "byteLength": 801912,
      "uri": "scene.bin"
    }
  ],
  "materials": [
    {
      "doubleSided": true,
      "name": "Gold",
      "pbrMetallicRoughness": {
        "baseColorFactor": [
          1.0,
          0.552127,
          0.13286800000000001,
          1.0
        ],
        "roughnessFactor": 0.195652
      }
    },
    {
      "doubleSided": true,
      "name": "Blue",
      "pbrMetallicRoughness": {
        "baseColorFactor": [
          0.00112269,
          0.0,
          0.0985039,
          1.0
        ]
      }
    }
  ],
  "meshes": [
    {
      "name": "Object_0",
      "primitives": [
        {
          "attributes": {
            "NORMAL": 1,
            "POSITION": 0,
            "TEXCOORD_0": 2
          },
          "indices": 3,
          "material": 0,
          "mode": 4
        }
      ]
    },
    {
      "name": "Object_1",
      "primitives": [
        {
          "attributes": {
            "NORMAL": 5,
            "POSITION": 4,
            "TEXCOORD_0": 6
          },
          "indices": 7,
          "material": 1,
          "mode": 4
        }
      ]
    },
    {
      "name": "Object_2",
      "primitives": [
        {
          "attributes": {
            "NORMAL": 9,
            "POSITION": 8,
            "TEXCOORD_0": 10
          },
          "indices": 11,
          "material": 0,
          "mode": 4
        }
      ]
    },
    {
      "name": "Object_3",
      "primitives": [
        {
          "attributes": {
            "NORMAL": 13,
            "POSITION": 12,
            "TEXCOORD_0": 14
          },
          "indices": 15,
          "material": 0,
          "mode": 4
        }
      ]
    }
  ],
  "nodes": [
    {
      "children": [
        1
      ],
      "matrix": [
        1.0,
        0.0,
        0.0,
        0.0,
        0.0,
        2.220446049250313e-16,
        -1.0,
        0.0,
        0.0,
        1.0,
        2.220446049250313e-16,
        0.0,
        0.0,
        0.0,
        0.0,
        1.0
      ],
      "name": "Sketchfab_model"
    },
    {
      "children": [
        2
      ],
      "name": "root"
    },
    {
      "children": [
        3
      ],
      "matrix": [
        1.0,
        0.0,
        0.0,
        0.0,
        0.0,
        2.220446049250313e-16,
        1.0,
        0.0,
        0.0,
        -1.0,
        2.220446049250313e-16,
        0.0,
        0.0,
        0.0,
        0.0,
        1.0
      ],
      "name": "GLTF_SceneRootNode"
    },
    {
      "children": [
        4,
        6,
        8,
        10
      ],
      "matrix": [
        0.0,
        -2.269321918487549,
        -0.0,
        0.0,
        2.269321918487549,
        0.0,
        0.0,
        0.0,
        0.0,
        0.0,
        2.269321918487549,
        0.0,
        0.0,
        2.234947681427002,
        0.0,
        1.0
      ],
      "name": "Rig_4"
    },
    {
      "children": [
        5
      ],
      "matrix": [
        -5.272132260862272e-07,
        3.538051366805977,
        3.163222409566325e-07,
        0.0,
        -5.620066205592033e-05,
        -3.163306155082558e-07,
        3.5380513663596527,
        0.0,
        3.5380513663596274,
        5.272082011588519e-07,
        5.6200662103056644e-05,
        0.0,
        -0.14682473242282867,
        0.37980926036834717,
        0.0,
        1.0
      ],
      "name": "B_0"
    },
    {
      "mesh": 0,
      "name": "Object_5"
    },
    {
      "children": [
        7
      ],
      "matrix": [
        -5.272132260862272e-07,
        3.538051366805977,
        3.163222409566325e-07,
        0.0,
        -5.620066205592033e-05,
        -3.163306155082558e-07,
        3.5380513663596527,
        0.0,
        3.5380513663596274,
        5.272082011588519e-07,
        5.6200662103056644e-05,
        0.0,
        -0.272413969039917,
        -0.0013938541524112225,
        0.0,
        1.0
      ],
      "name": "Inner Shield_1"
    },
    {
      "mesh": 1,
      "name": "Object_7"
    },
    {
      "children": [
        9
      ],
      "matrix": [
        -5.272132260862272e-07,
        3.538051366805977,
        3.163222409566325e-07,
        0.0,
        -5.620066205592033e-05,
        -3.163306155082558e-07,
        3.5380513663596527,
        0.0,
        3.5380513663596274,
        5.272082011588519e-07,
        5.6200662103056644e-05,
        0.0,
        -0.2967942953109741,
        -0.0013493354199454188,
        0.0,
        1.0
      ],
      "name": "Shield Border_2"
    },
    {
      "mesh": 2,
      "name": "Object_9"
    },
    {
      "children": [
        11
      ],
      "matrix": [
        -5.272132260862272e-07,
        3.538051366805977,
        3.163222409566325e-07,
        0.0,
        -5.620066205592033e-05,
        -3.163306155082558e-07,
        3.5380513663596527,
        0.0,
        3.5380513663596274,
        5.272082011588519e-07,
        5.6200662103056644e-05,
        0.0,
        -0.0071477144956588745,
        -0.34425848722457886,
        0.0,
        1.0
      ],
      "name": "W_3"
    },
    {
      "mesh": 3,
      "name": "Object_11"
    }
  ],
  "scene": 0,
  "scenes": [
    {
      "name": "Sketchfab_Scene",
      "nodes": [
        0
      ]
    }
  ]
}
