<?xml version='1.0' encoding='utf-8'?>
<svg xmlns="http://www.w3.org/2000/svg" width="210mm" height="227.84mm" clip-rule="evenodd" fill-rule="evenodd" image-rendering="optimizeQuality" shape-rendering="geometricPrecision" text-rendering="geometricPrecision" version="1.1" viewBox="0 0 20982 22764">
 <defs>
  <style type="text/css">
    .fil0 {fill:#434242}
    .fil3 {fill:#434242;fill-rule:nonzero}
    .fil4 {fill:#EFC007;fill-rule:nonzero}
    .fil1 {fill:url(#c)}
    .fil2 {fill:url(#d)}
  </style>
  <linearGradient id="c" x1="2787.8" x2="18194" y1="10187" y2="10187" gradientUnits="userSpaceOnUse">
   <stop stop-color="#623620" offset="0"/>
   <stop stop-color="#CC9E20" offset=".12157"/>
   <stop stop-color="#fff" offset=".23922"/>
   <stop stop-color="#CF9A30" offset=".52157"/>
   <stop stop-color="#662D29" offset="1"/>
  </linearGradient>
  <linearGradient id="d" x1="3810.6" x2="17171" y1="10302" y2="10302" gradientUnits="userSpaceOnUse">
   <stop stop-color="#434242" offset="0"/>
   <stop stop-color="#434242" offset=".05098"/>
   <stop stop-color="#C5C6C6" offset=".14118"/>
   <stop stop-color="#D9DADA" offset=".21176"/>
   <stop stop-color="#727271" offset=".52157"/>
   <stop stop-color="#2B2A29" offset=".74902"/>
   <stop stop-color="#2B2A29" offset="1"/>
  </linearGradient>
 </defs>
   <path class="fil0" d="m2619 1880l7872-1880 7871 1880v8322c0 4386-3960 8734-7871 10121-3457-1292-7872-5334-7872-10121v-8322z"/>
   <path class="fil1" d="m2788 2078l7703-1830 7703 1830v8143c0 4293-3876 8547-7703 9905-3383-1265-7703-5220-7703-9905v-8143z"/>
   <path class="fil2" d="m10496 5161c141 0 255 114 255 254 0 141-114 255-255 255-140 0-254-114-254-255 0-140 114-254 254-254zm-1588 627l85-366 263 280c245-126 415-377 423-670 279-105 539-239 769-422-117-23-206-126-206-250 0-140 114-254 254-254 141 0 255 114 255 254 0 122-86 224-200 249 223 194 482 330 762 431 12 301 194 557 453 676l276-294 85 365c256-12 479-147 613-347-98-35-168-129-168-239 0-140 114-254 254-254 141 0 254 114 254 254 0 141-113 254-254 254h-19v1168c-1540-483-3081-522-4622 0v-1168h-6c-141 0-254-113-254-254 0-140 113-254 254-254 140 0 254 114 254 254 0 114-75 210-178 243 140 207 377 344 646 344h7zm6492-93c374 577 607 381 672 404-2 20-232 739-124 1644 40 329 243 123 622 43 601-126-613 727-907 1152-63 90-228 325-244 432-60-3-622 968-701 1088-299 453-704 749-1080 996-2 14-4 27-6 40-264 1594-1601 1460-1511 2507 81 942-151 1071-238 1604-53 324-23 1419-47 1472-43-318-158-235-152-759-236 298-377 732-419 739-166-35-67-616-42-739-740 932-224 1004-935 108 31 156-1 569-111 631-58 32-197-348-458-677-33 515-82 427-114 704-54-308-256-817-263-1166-7-365-355-1323-339-1523 103-1334-511-1225-908-1638-191-199-542-761-786-1325-365-243-755-535-1045-974-79-120-641-1091-701-1088-17-107-181-342-244-432-294-425-1508-1278-907-1152 379 80 582 286 621-43 108-905-122-1624-123-1644 64-23 298 173 672-404 91-21 158-51 238-27 9 39-1 46-22 66-880 818-186 3385 109 3263 70 300 284 396 525 165 779-746 843-1235 1061-1955-41-404-989-711-1371-1289-43-66-351-598-383-596-10-59-100-187-134-237-161-233-826-699-497-630 208 43 319 156 341-24 59-495-67-889-68-900 35-13 163 95 368-221 50-11 86-28 130-15 5 22 0 26-12 37-481 448-102 1852 60 1786 38 164 155 216 287 90 443-425 464-697 595-1117 88-280 54-586 69-612 239 148 23 821 38 954 31 297 734 144 737 143 182 195-535 69-901 369-1039 849 131 1289 168 1291 93 7 451 288 684 489 49-370 20-686 40-722 437 271 44 1501 69 1744 58 541 1342 262 1347 260 334 357-977 127-1645 674-1164 952-811 1622-348 1999-48-278-20-502 132-607 989 207 1882 891 2190 1874 183 586 169 389 603 325 1068-159 929-17 1171-36 280 143 227 88 329-129 409-868 215-683 1053-1364 295-239 729-688 1111-685 130 191 136 462 103 736 522-347 1100-1056-192-2113-668-547-1979-317-1645-674 5 2 1289 281 1346-260 26-243-367-1473 69-1744 21 36-9 352 40 722 234-201 592-482 684-489 37-2 1207-442 168-1291-365-300-1083-174-900-369 3 1 706 154 737-143 14-133-201-806 38-954 15 26-20 332 68 612 132 420 152 692 595 1117 132 126 249 74 288-90 161 66 541-1338 60-1786-12-11-18-15-13-37 44-13 81 4 131 15 205 316 332 208 368 221-1 11-127 405-68 900 22 180 133 67 340 24 329-69-335 397-496 630-35 50-125 178-134 237-33-2-340 530-384 596-381 578-1329 885-1371 1289 219 720 283 1209 1061 1955 241 231 455 135 526-165 295 122 988-2445 109-3263-22-20-31-27-23-66 81-24 147 6 239 27z"/>
   <path class="fil0" d="m3318 2645l7220-1725 7220 1725v7633c0 4023-3633 8011-7220 9283-3171-1185-7220-4892-7220-9283v-7633zm154 181l7066-1678 7065 1678v7469c0 3938-3554 7840-7065 9085-3103-1160-7066-4788-7066-9085v-7469z"/>
    <path class="fil3" d="m0 22764l1572-1918c279-339-1572-602-1572-1053 6994-2971 13988 1981 20982-990l-1338 2093c-179 279 1241 302 1326 774-6994 2971-13976-1877-20970 1094z"/>
    <path class="fil4" d="m196 22594l1543-1764c273-313-1543-554-1543-969 6863-2733 13726 1822 20590-911l-1313 1926c-268 393 1313 296 1313 773-6864 2733-13727-1788-20590 945z"/>
    <path class="fil3" d="m4231 19341c-183 11-410 67-583 307-148 207-173 411-165 539 18 306 191 528 347 611 176 92 361 120 488 112 319-18 494-161 620-339 107-151 140-319 130-477-16-289-158-492-325-612-183-130-354-150-512-141zm-3 94c204-12 534 234 561 697 11 179-30 659-459 684-179 10-530-166-562-718-10-170 39-393 161-526 136-149 261-134 299-137zm1804 1429c2 17 12 25 29 26 17 0 30-4 43-8l265-70c9-2 13-6 11-19l-6-34c-2-9-8-11-25-9-26 4-55 3-68 3-17 0-38-9-46-73-3-43-2-145 0-247l3-154c3-210 17-266 17-287 0-8-4-21-16-21-9-1-17 1-28 3s-21 4-36 4l-264-4c-19-1-26 1-26 16l-1 38c0 9 4 13 42 18 51 5 92 19 91 74l-9 500c0 26-16 56-24 68-35 46-100 79-151 78-46 0-93 3-135-61-56-91-38-235-37-320l2-132c3-147 13-245 13-266 0-13-8-26-21-26-6 0-15 2-23 4-9 2-19 3-32 3l-256-4c-21 0-25 4-25 17l-1 38c0 13 12 13 46 18 39 5 68 24 74 78 4 25 2 102 1 153 0 45-4 117-6 219-2 119-1 198 74 300 73 94 141 96 218 97 111 2 235-64 283-140h13l11 120zm9374 971c2 17 12 26 29 26s30-4 43-8l265-70c9-2 13-6 11-19l-6-34c-1-9-8-11-25-9-26 4-55 3-68 3-17 0-38-9-46-73-3-43-2-145 0-247l3-153c3-211 17-266 17-287 1-9-3-22-16-22-9 0-17 2-28 4s-21 4-36 3l-264-4c-19 0-26 2-26 17l-1 38c0 8 4 13 43 18 51 5 91 18 90 74l-9 500c0 25-15 55-24 68-35 46-99 79-151 78-46-1-93 3-135-62-56-90-38-235-37-320l2-132c3-147 13-245 13-266 1-13-8-26-20-26-7 0-15 2-24 4s-19 4-32 4l-255-5c-22 0-26 4-26 17l-1 38c0 13 13 13 47 18 38 5 67 25 73 78 4 26 2 102 1 153 0 45-4 117-5 220-2 119-2 198 73 299 73 95 141 96 218 97 111 2 235-64 283-140l13 1 11 119zm-8808-1069c-3 40-25 55-59 53l-74-6c-15-1-20 3-21 16l-3 47c-1 10 3 15 14 16 17 1 100 1 249 12 154 11 247 25 262 26 11 0 15-3 16-14l4-49c1-11-3-15-16-16l-93-7c-43-3-58-26-53-94l30-409c2-28 14-74 34-103 28-42 68-56 93-54 22 1 42 7 58 21 17 10 42 20 71 22 56 4 119-46 124-106 4-59-35-109-103-114-93-7-188 58-269 172l-8-1-8-154c-1-13-5-26-17-27-13-1-22 3-35 6l-266 102c-13 5-18 9-18 18l-1 13c-1 8 3 13 16 18l36 24c61 39 76 74 68 172l-31 416zm7445-433c81 6 356 35 411 50 54 16 106 59 137 108 70 91 120 167 138 207 12 18 16 22 25 19l41-14c7-2 9-8 8-17-7-26-53-324-59-359 1-17-2-25-10-30-9-1-44 5-82 2-136-10-696-48-726-50-242-18-322-30-344-32-8 0-17 3-18 12l-4 61c-1 7 7 12 16 12l106 8c55 4 83 28 81 66-2 23-20 325-27 418l-11 149c-28 365-52 633-57 675-5 36-22 43-73 39l-85-6c-9-1-13 3-14 12l-4 57c-1 11 3 15 11 16 30 2 111 2 302 16 208 15 293 28 314 30 13 1 17-3 18-16l4-53c1-11-3-15-16-16l-114-9c-51-4-68-13-63-73l39-529c64 5 164 13 243 31 42 12 78 47 100 95 9 20 24 88 25 103 1 12 7 17 15 18l48-5c8-2 15-5 14-21-1-42-2-145 4-221 2-30 15-204 22-242 1-8-3-13-12-14l-42-7c-8-1-15 7-18 16-12 37-27 79-47 105-40 50-75 73-118 74-35 6-169-1-228-6l50-679zm-6765 561c1 9 7 16 14 25 22 22 111 67 224 78 210 20 366-93 383-271 7-72-5-125-47-176-49-65-106-96-201-131-124-46-185-78-177-164 7-75 80-115 158-107 70 7 104 49 127 79l91 124c3 9 9 11 16 10l42-15c5-4 6-15 4-23l-13-147c-1-13-7-22-37-42-36-25-97-57-201-67-87-8-148 5-227 49-79 46-121 119-130 212-14 151 93 234 233 290 145 57 196 100 188 185-8 78-80 123-163 115-104-10-139-65-171-132l-59-126c-3-9-10-9-18-8l-42 9c-6 1-9 7-8 16l14 217zm5098 165l512 59c38 4 59 5 63-27 10-87-40-348-281-375-184-21-284 10-386 114-104 108-126 185-139 302-15 131-6 239 78 362 65 93 157 134 292 149 233 27 357-105 411-180 18-26 14-35 4-42l-29-23c-8-5-17-6-27 8-52 62-139 108-270 93-120-14-260-158-236-374l8-66zm15-75c44-139 116-208 220-196 110 13 116 140 109 204-2 16-29 26-73 21l-256-29zm-3780-202c-8 59-18 126-28 190-7 33-19 40-40 37l-93-11c-12-2-21 1-23 14l-5 40c-2 17 4 22 14 23 26 3 107 7 229 23 142 18 238 37 255 39 13 2 18-6 19-19l6-42c1-11-2-16-19-18l-85-11c-21-2-27-20-27-59-1-26 9-102 19-182l29-228c23-175 40-311 49-344 4-16-1-26-14-27-13-2-30 0-52 6-38 10-257 57-288 66-11 3-16 7-17 15l-3 24c-1 8 0 15 19 21 94 38 101 82 93 145l-38 298zm330-920c6-48-26-114-111-125-84-11-149 39-156 100-9 72 48 126 113 135 95 12 146-48 154-110zm139 1234c1 9 7 16 14 26 20 22 108 70 220 86 209 28 370-79 394-256 10-72 0-125-40-177-47-67-103-100-196-139-122-51-182-85-170-171 10-74 84-111 162-101 69 10 102 53 124 84l85 128c3 9 9 12 16 10l43-13c4-4 6-14 5-23l-8-147c0-13-5-23-35-44-35-26-95-60-198-74-87-12-148-1-229 40-81 42-125 114-138 206-20 150 84 237 222 299 142 63 191 108 180 192-11 78-85 120-168 109-103-14-136-71-166-139l-53-128c-3-9-9-10-18-9l-42 8c-7 1-10 7-9 16l5 217zm2612 90c-10 67-25 177-33 206-9 33-39 37-65 34l-36-5c-10-2-15 2-16 11l-7 50c-1 11 2 16 15 17 21 3 98 7 224 24 129 18 196 34 208 35 13 2 18-4 20-14l6-47c1-10-2-15-19-17l-38-6c-34-4-71-14-67-43l38-279 17-126c16-120 35-225-51-323-55-63-106-100-199-113-99-14-219 17-290 91l-12-1 18-131c14-103 72-530 81-567 9-33 7-51-10-53-21-3-35 4-61 9-72 25-226 77-291 85-27 9-32 13-33 21l-3 21c-1 9 3 14 15 19l36 18c68 40 87 85 71 203l-99 754c-13 97-32 219-46 260-10 25-40 29-74 24l-53-7c-10-1-19 2-21 12l-6 47c-2 13 4 18 15 19 16 2 97 7 228 25 110 15 202 34 219 36 12 2 18-6 19-19l6-38c2-14-6-20-19-22l-50-6c-30-4-36-27-26-94l62-456c5-40 32-79 52-98 53-40 111-62 166-55 51 7 82 29 112 67 47 62 31 180 16 290l-19 142zm-1219-619l-39 273c-11 80-41 247-52 323-12 88 69 203 195 220 148 21 245-30 278-47 9-7 15-15 12-28l-9-27c-3-11-9-12-25-7-31 10-79 14-125 7-43-6-107-49-84-213l26-189c13-93 30-193 46-281l255 36c13 2 20-1 23-10l34-85c3-8 0-17-12-19l-279-39 38-208c2-17-4-31-21-33-13-2-26 1-37 16-59 82-264 213-326 225-29 7-43 18-46 35-3 21 9 31 26 33l122 18zm5488 1140c1 40-20 57-54 58l-74 1c-15 1-20 5-19 18l1 47c0 10 4 14 15 14 17 0 100-8 249-11 155-3 249 2 264 2 10 0 15-5 14-15l-1-49c0-11-4-15-17-15l-93 2c-43 1-60-20-62-89l-7-410c-1-28 7-75 23-105 25-45 63-63 89-64 21 0 42 4 59 16 18 9 43 17 73 16 56-1 114-57 113-117s-45-106-113-104c-93 1-181 75-252 196h-8l-22-153c-2-13-7-25-20-25-12 0-21 5-34 9l-255 126c-13 7-17 11-17 20l1 12c0 9 4 13 17 17l39 21c64 33 82 66 84 164l7 418zm926 682c115-12 148-101 176-159 32-72 100-280 183-520 117-359 228-691 265-751 20-32 51-41 73-43l25-3c9-1 12-6 11-18l-5-45c-1-10-5-16-16-15-19 2-69 13-141 21-115 11-158 9-183 12-13 1-16 8-15 19l4 46c1 9 6 15 19 13l34-3c38-4 60 20 53 76-7 45-118 421-148 505l-8 1c-26-44-198-463-208-505-10-31 6-46 27-48l32-3c10-1 14-8 13-17l-5-46c-1-13-6-17-18-15-26 2-89 15-212 28-156 16-208 15-225 16-12 2-16 8-15 17l5 47c1 10 6 16 18 15l43-5c42-4 67 28 96 80 18 35 332 671 351 733-17 83-104 327-126 355-12 14-37 17-55 10-27-10-62-19-96-16-55 6-97 57-91 117 7 67 63 109 139 101z"/>
</svg>