<?xml version='1.0' encoding='utf-8'?>
<svg xmlns="http://www.w3.org/2000/svg" xmlns:xlink="http://www.w3.org/1999/xlink" width="210mm" height="232.08mm" clip-rule="evenodd" fill-rule="evenodd" image-rendering="optimizeQuality" shape-rendering="geometricPrecision" text-rendering="geometricPrecision" version="1.1" viewBox="0 0 20888 23084">
 <defs>
  <style type="text/css">
    .fil0 {fill:#9C2232}
    .fil2 {fill:#C0260E}
    .fil7 {fill:#EF7F1A;fill-rule:nonzero}
    .fil6 {fill:#C0260E;fill-rule:nonzero}
    .fil1 {fill:url(#e)}
    .fil4 {fill:url(#f)}
    .fil5 {fill:url(#a)}
    .fil3 {fill:url(#g)}
  </style>
  <linearGradient id="e" x1="2775.4" x2="18113" y1="10142" y2="10142" gradientUnits="userSpaceOnUse">
   <stop stop-color="#EF7F1A" offset="0"/>
   <stop stop-color="#F39743" offset=".18824"/>
   <stop stop-color="#EBECEC" offset=".2902"/>
   <stop stop-color="#EF7F1A" offset=".52157"/>
   <stop stop-color="#CB6A1E" offset="1"/>
  </linearGradient>
  <linearGradient id="f" x1="5295.8" x2="15592" y1="9270.7" y2="9270.7" gradientUnits="userSpaceOnUse">
   <stop stop-color="#6F0000" offset="0"/>
   <stop stop-color="#C83E22" offset=".05098"/>
   <stop stop-color="#FF9760" offset=".12941"/>
   <stop stop-color="#D9DADA" offset=".18824"/>
   <stop stop-color="#FF6728" offset=".54902"/>
   <stop stop-color="#CC2900" offset=".81176"/>
   <stop stop-color="#9F1D2C" offset=".92157"/>
   <stop stop-color="#6D091D" offset="1"/>
  </linearGradient>
  <linearGradient id="a" x1="6699.5" x2="8624.2" y1="11113" y2="13038" gradientUnits="userSpaceOnUse">
   <stop stop-color="#623620" offset="0"/>
   <stop stop-color="#CC9E20" offset=".12157"/>
   <stop stop-color="#fff" offset=".23922"/>
   <stop stop-color="#CF9A30" offset=".52157"/>
   <stop stop-color="#662D29" offset="1"/>
  </linearGradient>
  <linearGradient id="g" x1="8684.8" x2="12480" y1="7265" y2="11054" gradientUnits="userSpaceOnUse" xlink:href="#a">
  </linearGradient>
 </defs>
   <path class="fil0" d="m2608 1872l7836-1872 7836 1872v8284c0 4367-3942 8695-7836 10076-3442-1286-7836-5310-7836-10076v-8284z"/>
   <path class="fil1" d="m2775 2068l7669-1821 7669 1821v8107c0 4274-3859 8510-7669 9861-3368-1259-7669-5197-7669-9861v-8107z"/>
   <path class="fil2" d="m3303 2633l7188-1717 7187 1717v7599c0 4006-3616 7975-7187 9242-3157-1180-7188-4871-7188-9242v-7599zm154 180l7034-1670 7034 1670v7436c0 3921-3539 7805-7034 9045-3089-1155-7034-4767-7034-9045v-7436z"/>
   <path class="fil3" d="m14809 5189l-7673 7673-256-255 7682-7683c-41-93-67-207-77-346l2023-1344-1343 2023c-136 2-256-18-356-68z"/>
   <path class="fil4" d="m5296 10856c608-1187 478-2216 0-3171 1155 646 2248 1043 3170 757-182 458-205 948 0 1483-1057-30-2113 416-3170 931zm2629 3176c-410-1269-1229-1905-2242-2242 1273-360 2327-852 2776-1707 195 453 525 816 1049 1049-768 726-1200 1788-1583 2900zm-2242-7281c1269-409 1905-1229 2242-2242 360 1273 852 2327 1707 2777-453 195-816 525-1049 1049-727-768-1789-1201-2900-1584zm3176 7668c1187-608 2216-478 3170 0-645-1155-1042-2248-756-3170-458 182-948 205-1483 0 29 1056-416 2113-931 3170zm6733-3563c-608-1187-478-2216 0-3171-1155 646-2248 1043-3170 757 182 458 205 948 0 1483 1057-30 2113 416 3170 931zm-387-4105c-1269-409-1905-1229-2242-2242-360 1273-852 2327-1707 2777 453 195 816 525 1049 1049 727-768 1789-1201 2900-1584zm-2242 7281c410-1269 1229-1905 2242-2242-1273-360-2326-852-2776-1707-195 453-525 816-1049 1049 768 726 1201 1788 1583 2900zm-4104-9910c1187 608 2216 479 3170 0-645 1156-1042 2249-756 3171-458-183-948-205-1483 0 29-1057-416-2114-931-3171zm1585 3331c1004 0 1818 814 1818 1818s-814 1818-1818 1818-1818-814-1818-1818 814-1818 1818-1818z"/>
   <path class="fil5" d="m10667 9331l-4959 4959-256-256 4968-4968c169 18 242 114 247 265z"/>
   <path class="fil6" d="m0 23084l1565-1910c278-338-1565-599-1565-1048 6963-2958 13925 1972 20888-986l-1332 2084c-177 278 1236 301 1321 771-6963 2958-13914-1869-20877 1089z"/>
   <path class="fil7" d="m195 22915l1536-1757c272-311-1536-551-1536-964 6833-2721 13665 1814 20498-907l-1307 1917c-267 392 1307 295 1307 769-6833 2721-13665-1779-20498 942z"/>
    <path class="fil6" d="m2590 20700c23 165 40 247 65 300 36 77 95 127 172 147 50 14 124 13 185 5 95-14 171-55 217-110 60-70 79-152 72-256-2-51-30-270-33-287-2-17-27-192-27-208 1-14 1-50 46-56l46-7c6 0 7-4 5-12l-4-29c0-6-2-10-14-8-10 1-49 11-127 22-83 11-141 16-154 17-7 2-10 4-8 12l4 31c1 5 4 9 11 8l45-7c28-4 51 16 60 48 8 29 33 138 47 238l32 226c13 92-2 168-43 223-35 43-102 75-160 84-60 8-131-2-181-54-36-36-54-92-66-150-8-40-22-129-31-191l-22-156c-10-73-18-149-19-164-3-26 17-52 54-57l53-8c8-1 10-4 9-11l-5-32c0-6-3-8-11-7-15 2-75 14-180 29-121 17-181 22-194 24-10 1-12 4-11 11l4 29c1 9 4 11 12 10l57-8c33-5 46 14 52 57l42 297zm889-98c-8 3-12 9-12 14l1 10c1 5 4 10 12 11l10 4c32 13 57 31 60 69l28 284c1 20-16 27-31 28l-25 2c-10 1-13 4-12 12l3 24c0 7 3 12 8 12 8-1 48-9 126-16 76-8 112-7 119-8 8-1 10-6 9-13l-2-23c-1-9-4-11-14-10l-23 2c-17 2-25-13-28-41l-25-260c-3-34 0-70 18-92 28-31 58-39 78-40 28-3 50-5 78 15 33 22 38 55 43 105l14 146c5 50 7 85 6 119 0 23-9 31-19 32l-26 3c-12 1-15 4-14 11l2 22c1 10 4 14 12 14 7-1 47-9 123-16 88-8 127-8 137-9 7-1 10-4 9-10l-3-29c0-6-4-9-16-7l-35 3c-15 1-31-5-34-32-2-26-6-81-10-122l-18-182c-5-51-22-88-81-123-30-20-72-24-114-20-38 4-70 20-99 40-24 16-44 38-58 57l-7 1-17-65c-3-10-9-14-16-14-8 1-15 7-25 13l-132 79zm859 383c36 16 88 28 164 24 154-9 269-171 261-310-4-70-21-122-46-156-43-60-113-100-191-96-65 4-129 31-170 75l-7-152c-6-110-9-255-9-265 1-13-4-20-14-19-10 0-20 6-37 17-40 23-111 60-161 80-10 4-12 9-12 11l1 13c0 5 3 7 18 9l16 4c41 11 56 25 61 111l29 462c6 91 11 197 9 215 0 5 0 8 6 10l18 4c5 0 10 0 16-5l48-32zm21-414c27-27 61-41 97-43 100-6 165 73 174 219 3 56-1 97-25 144-26 51-71 69-111 71-43 3-80-22-97-51-18-37-23-78-29-184l-9-156zm788-132c-52 0-118 11-179 63-76 61-105 151-104 211 1 78 14 131 71 196 57 68 126 90 206 89 85-1 161-35 212-94 47-54 77-123 76-194-1-74-29-140-90-199-43-41-107-73-192-72zm3 506c-50 0-78-20-100-54-35-54-41-102-42-176-1-92 14-146 53-190 21-25 46-35 79-36 58 0 133 80 134 219 2 130-40 236-124 237zm571 63c12 1 23-4 31-20l161-341h8l112 348c7 19 12 27 25 27 10 1 20-2 27-15 21-43 199-436 213-459 8-13 29-20 49-19l19 1c6 0 9-4 9-10l1-28c0-5-2-9-9-9-13-1-36 2-92 0-61-3-99-8-106-8-6-1-10 2-11 9l-1 28c0 5 2 9 7 9l18 1c31 1 45 27 22 82l-93 226h-5l-82-278c-5-16 6-28 18-28l21 1c7 0 10-3 10-10l1-26c1-8-3-11-12-11-10 0-38 2-96 0-81-3-122-9-131-9-7-1-11 2-11 9l-2 28c0 7 3 9 9 9l14 1c13 1 25 4 32 14 11 16 16 40 8 57l-109 245-7-1-80-300c-5-19 2-29 14-28h13c8 0 10-2 10-8l2-28c0-8-3-10-10-11-18 0-48 2-109 0-91-4-117-9-132-10-7 0-10 3-10 10l-2 28c0 5 3 9 9 9l21 1c21 1 38 9 47 35l156 452c5 17 13 27 23 27zm793-305l306 23c22 1 35 1 36-18 4-52-32-206-176-216-110-8-169 13-227 77-59 67-70 114-75 183-6 78 2 143 56 214 40 54 96 75 177 81 139 10 210-71 240-117 10-16 7-21 1-25l-18-13c-5-3-10-3-15 5-30 39-80 68-159 62-72-5-159-87-149-216l3-40zm7-45c22-83 63-126 125-122 66 5 73 81 71 119-1 10-17 16-43 14l-153-11zm957-40c15-163 32-345 43-408 4-15-1-23-6-23-10-1-18 1-33 2-34 4-118 4-181 6-8 2-11 4-11 9l-3 23c0 5 2 8 10 11 67 19 75 37 72 81l-19 245c-29-13-69-24-117-29-75-7-139 15-194 64-72 64-101 133-110 220-7 81 13 136 62 193 42 51 96 71 145 76 58 5 139-18 184-57l12 60c2 10 9 16 17 14l173-32c8-2 11-7 9-15l-1-15c-2-6-7-9-24-10-18-4-40-12-51-28-9-13-7-64-3-112l26-275zm-162 318c-2 20-6 35-15 50-14 19-50 41-100 36-78-7-146-118-132-262 4-51 21-103 64-146 27-28 60-33 91-30 53 5 91 36 105 70 9 18 9 41 7 61l-20 221zm705 554c5 0 8-4 9-12l131-1261c1-8-1-13-8-14l-64-6c-5-1-8 1-9 9l-131 1264c-1 9 0 12 7 13l65 7zm673-747c-21 164-27 248-17 306 15 83 58 148 127 187 45 27 116 46 177 54 95 13 180-7 239-48 75-52 116-126 137-228 11-49 42-268 45-285 2-17 25-193 29-208 5-13 14-48 59-42l46 6c6 1 8-3 9-10l3-29c1-6 0-10-11-12-10-1-51-3-129-13-83-11-140-22-152-23-8-1-11 1-12 8l-4 32c-1 5 1 9 9 10l45 6c28 3 45 29 45 62 0 29-5 141-18 242l-29 226c-12 92-47 161-101 203-45 33-118 46-176 38-61-7-126-36-161-100-25-44-28-103-24-161 3-41 13-130 21-193l21-156c9-73 22-148 25-163 5-26 30-46 68-41l53 7c7 1 10-2 11-9l4-31c1-7-1-10-9-11-15-2-76-6-181-19-121-16-181-28-194-29-10-2-12 0-13 8l-4 29c-1 9 1 12 8 13l58 7c33 4 40 26 35 69l-39 298zm865 131c-8 2-13 6-14 11l-1 10c-1 5 1 11 8 14l9 6c28 20 48 43 43 80l-37 283c-3 20-21 23-36 21l-25-3c-10-2-13 1-14 8l-3 24c-1 7 0 13 5 13 8 1 49 3 127 13 75 10 110 19 117 20 8 1 11-4 12-11l3-23c1-9-1-12-11-13l-23-3c-17-2-22-18-18-46l35-259c4-34 15-68 38-86 34-23 64-24 85-22 27 4 50 7 72 33 27 29 25 62 18 113l-19 144c-7 50-12 85-21 118-5 22-16 28-26 27l-25-4c-13-1-16 1-17 8l-3 22c-1 10 1 15 8 16 8 1 49 3 124 13 88 12 125 20 135 22 8 1 11-2 12-8l3-29c1-6-2-9-14-11l-35-4c-15-2-29-12-25-39 3-26 12-81 17-121l24-181c7-51-2-91-52-139-24-26-64-39-106-44-38-5-72 3-105 16-27 10-52 27-69 42l-8-1-1-66c-2-11-6-16-13-17-8-1-16 3-27 6l-147 47zm752 554c32 22 81 44 156 54 154 20 297-118 315-256 9-69 2-124-16-162-31-67-92-119-170-130-64-8-132 6-180 42l20-151c16-109 40-252 41-262 4-12 0-20-10-21-10-2-21 2-40 10-42 15-120 38-172 49-11 1-14 6-14 8l-2 13c0 5 2 8 17 12l14 7c39 18 50 35 39 120l-57 460c-12 90-27 196-32 213 0 5-1 8 4 11l17 7c5 1 10 1 17-2l53-22zm98-403c31-21 68-29 103-25 99 13 149 103 130 249-7 55-19 94-51 136-35 45-83 55-123 49-42-5-74-36-85-68-11-40-8-81 6-186l20-155zm595 187l304 39c23 3 36 3 38-16 7-51-21-207-164-225-110-14-170 4-231 65-63 64-77 109-85 178-10 78-6 143 44 217 37 56 92 81 172 91 139 18 214-60 246-104 11-16 9-21 3-25l-17-14c-5-3-10-4-16 4-32 37-84 64-162 54-71-9-153-96-137-225l5-39zm9-45c27-82 71-122 133-114 65 8 68 84 63 121-1 11-17 16-43 13l-153-20zm437-46c-8 2-14 6-15 11l-1 10c0 5 1 10 9 14l9 6c28 19 49 42 44 80l-35 283c-2 20-21 23-36 21l-25-3c-10-1-13 1-14 8l-3 24c-1 8 1 13 6 14 8 1 49 2 127 12 75 9 110 17 117 18 8 1 11-4 12-11l3-23c1-9-1-12-11-13l-23-3c-18-2-22-18-19-46l32-259c5-34 15-68 38-86 33-24 64-25 84-23 28 4 51 7 73 32 27 29 26 62 19 113l-17 144c-7 51-12 86-20 118-5 22-16 29-26 27l-26-3c-12-1-15 1-16 8l-3 22c-1 10 1 15 9 16 7 1 48 2 123 12 89 11 126 19 136 20 7 1 10-1 11-7l4-29c0-7-3-10-14-11l-36-4c-15-2-29-12-26-39 4-25 12-81 17-121l22-181c6-52-3-91-53-138-25-26-64-39-107-44-38-5-72 4-105 18-26 9-52 26-69 42l-7-1-2-66c-2-11-6-16-14-17-7-1-15 3-26 7l-146 48zm738 101l-17 163c-5 48-20 148-25 194-5 52 45 119 121 127 88 9 145-23 164-34 6-4 9-9 7-17l-6-16c-2-6-6-7-15-4-18 7-47 10-75 7-25-2-64-27-54-125l12-113c6-55 13-116 21-168l153 16c8 1 12-1 13-6l19-52c1-5-1-10-8-11l-167-17 19-125c1-10-4-18-14-19-7-1-15 1-21 11-34 50-153 131-190 140-17 5-25 12-26 22-2 12 6 18 16 19l73 8zm749 867c5 1 8-4 9-12l111-1263c1-7-1-13-8-13l-64-6c-5 0-8 2-9 9l-111 1266c-1 9 0 13 7 13l65 6zm642-765c-12 166-13 250 0 307 20 83 66 144 137 180 47 24 119 39 180 44 96 7 179-18 236-62 73-56 109-132 124-235 9-50 27-270 29-288 1-16 14-193 17-208 4-14 12-49 57-46l46 4c6 0 8-3 8-11l2-29c1-6 0-10-12-11-10-1-50 0-129-6-83-6-141-14-154-15-7 0-10 2-11 10l-2 31c0 5 2 9 9 10l46 3c28 2 46 26 48 59 1 30 3 142-4 243l-17 228c-6 92-37 163-89 208-43 35-115 53-174 48-60-4-127-29-166-91-27-42-33-101-33-160 1-40 6-130 11-193l11-157c6-74 14-149 16-164 3-27 28-48 66-45l53 4c7 0 10-2 11-10l2-31c0-7-2-9-10-10-15-1-76-2-182-9-121-9-182-18-194-18-11-1-13 1-14 9l-2 29c-1 9 2 11 9 12l59 4c32 3 41 24 38 67l-22 299zm856 73c-7 2-12 7-13 12v10c0 5 2 10 9 13l10 5c30 17 52 38 50 76l-12 285c-1 21-19 25-34 24l-25-1c-10 0-13 2-13 10l-1 24c-1 7 2 13 7 13 7 0 48-2 126 1 76 4 112 9 119 9 8 1 11-4 11-12l1-23c0-9-2-11-12-12l-23-1c-18 0-23-16-22-44l11-261c2-34 9-69 31-88 31-27 62-31 82-30 28 1 51 2 75 26 29 27 31 60 28 111l-6 145c-2 51-5 86-10 119-4 23-14 30-24 30l-26-2c-12 0-15 2-15 10l-1 21c-1 11 2 16 9 16 8 0 49-2 125 2 88 3 126 9 136 9 8 1 11-2 11-8l1-29c0-7-3-9-15-10l-35-1c-15-1-30-9-29-37 1-25 5-81 6-122l8-182c3-52-10-91-64-134-27-24-67-33-110-35-38-1-71 10-103 26-25 12-49 31-65 48h-8l-7-66c-2-11-7-16-15-16-7-1-15 4-25 9l-143 60zm798 474c35 19 86 35 162 36 154 4 282-148 285-288 1-70-12-123-34-159-38-63-104-109-183-110-64-2-131 20-175 61l5-152c3-111 12-255 12-265 3-13-2-21-13-21-10 0-20 5-38 15-41 19-115 50-166 67-10 2-13 7-13 10v13c0 5 2 7 17 10l15 6c41 13 54 29 52 115l-7 463c-2 91-5 197-8 215 0 5 0 8 5 10l17 6c6 0 11 0 17-4l50-28zm54-411c29-25 65-37 100-36 100 2 159 86 156 233-1 56-8 96-36 141-30 49-76 63-116 62-44 0-78-28-93-59-14-38-16-79-14-185l3-156zm542 349c0 24-13 34-33 35l-44 1c-9 0-12 2-11 10v28c0 6 3 9 9 8 10 0 60-4 148-6 93-1 149 2 158 1 6 0 8-2 8-9v-29c0-6-3-9-10-8l-56 1c-26 0-36-13-37-53l-4-245c0-16 5-44 15-62 14-27 37-38 52-38 13 0 26 2 36 10 10 5 25 9 43 9 33 0 68-34 68-69-1-36-27-63-67-63-56 1-109 45-151 117h-5l-13-91c-1-8-4-15-11-15-8 0-13 3-21 5l-152 75c-7 4-10 6-10 12v7c0 5 3 8 11 10l23 12c38 20 49 40 50 99l4 248zm622-492c-52 3-117 17-176 71-73 65-98 156-95 217 5 77 21 129 80 192 61 65 131 84 210 79 85-5 159-42 208-103 45-56 71-126 67-197-4-75-36-139-99-195-45-39-110-69-195-64zm27 505c-51 3-80-15-104-48-37-53-45-101-49-174-5-92 7-146 44-193 20-25 44-37 77-39 59-3 137 74 145 213 7 129-30 237-113 241zm529-264c10-1 28 0 42 11 31 30 164 159 168 172 3 9-1 18-11 19l-10 1c-8 0-10 3-9 11l2 21c1 10 4 12 11 12 10-1 63-10 136-18 83-8 119-8 129-9s12-4 12-11l-3-26c-1-8-3-11-11-10-15 2-46 0-67-11-33-17-232-198-274-237 32-37 124-138 150-156s58-27 76-29l13-1c7-1 9-4 9-11l-3-23c-1-9-4-14-10-13-10 1-40 8-109 15-73 7-119 8-127 9-7 0-9 6-9 11l3 26c1 8 3 10 10 9l11-1c15-1 25 7 26 14 0 7-3 16-7 24-13 24-76 107-103 138-12 11-34 18-49 20l-20-192c-15-150-31-337-32-398 0-15-2-20-12-19-8 1-20 7-37 16-17 7-119 58-153 69-13 4-17 10-17 15l2 17c0 3 6 5 19 9 65 11 71 36 76 84l48 455c5 50 15 162 15 187 2 15-4 31-22 33l-33 3c-10 1-12 4-11 11l2 24c1 8 4 13 10 12 6 0 49-9 130-17 70-7 114-7 121-8 8-1 10-5 9-11l-2-25c-1-9-4-12-14-11l-28 3c-15 2-26-7-28-27l-19-187zm558-121l304-43c23-3 35-6 32-25-7-51-74-194-217-174-109 15-162 48-206 123-44 78-45 125-35 194 10 78 32 139 99 198 51 44 109 54 190 43 138-20 190-114 210-165 6-18 3-22-4-25l-20-9c-5-2-10-1-14 8-21 44-64 83-142 94-72 10-174-52-191-181l-6-38zm-2-46c4-87 36-137 97-146 66-9 88 64 94 101 1 10-13 20-39 24l-152 21z"/>
    <path class="fil6" d="m17948 21242c-7 4-11 10-10 15l2 10c1 5 5 9 13 10l11 3c32 9 59 25 66 62l55 280c4 20-12 28-27 31l-25 5c-10 2-12 5-11 13l5 23c1 8 5 12 10 11 7-1 46-13 123-28 75-15 111-18 118-19 8-2 9-7 8-14l-5-23c-1-9-4-11-14-9l-23 5c-17 3-26-11-32-38l-50-256c-7-34-7-70 9-94 24-33 53-44 73-48 27-5 50-9 79 8 35 19 44 51 53 101l28 143c10 50 16 85 18 118 2 23-6 32-16 34l-25 5c-12 2-14 5-13 13l4 21c2 10 6 14 13 13 8-2 47-13 121-28 87-17 125-20 135-22 8-2 10-5 9-11l-6-29c-1-6-5-8-17-5l-34 6c-15 3-32-1-37-29-5-25-15-79-22-119l-36-179c-10-51-31-86-93-115-32-17-73-17-115-9-38 8-68 27-94 50-23 17-41 41-53 62l-7 1-23-62c-4-10-10-14-18-12-7 1-14 7-22 14l-125 92z"/>
</svg>