<?xml version='1.0' encoding='utf-8'?>
<svg xmlns="http://www.w3.org/2000/svg" xmlns:xlink="http://www.w3.org/1999/xlink" width="210mm" height="213.53mm" clip-rule="evenodd" fill-rule="evenodd" image-rendering="optimizeQuality" shape-rendering="geometricPrecision" text-rendering="geometricPrecision" version="1.1" viewBox="0 0 20982 21334">
 <defs>
  <style type="text/css">
    .fil0 {fill:#5B5B5B}
    .fil4 {fill:#727271}
    .fil8 {fill:#2B2A29;fill-rule:nonzero}
    .fil6 {fill:#434242;fill-rule:nonzero}
    .fil7 {fill:#EBECEC;fill-rule:nonzero}
    .fil5 {fill:url(#e)}
    .fil1 {fill:url(#f)}
    .fil2 {fill:url(#a)}
    .fil3 {fill:url(#g)}
  </style>
  <linearGradient id="e" x1="5979" x2="15260" y1="7895.3" y2="7895.3" gradientUnits="userSpaceOnUse">
   <stop stop-color="#5B5B5B" offset="0"/>
   <stop stop-color="#9D9E9E" offset=".6"/>
   <stop stop-color="#D9DADA" offset="1"/>
  </linearGradient>
  <linearGradient id="f" x1="2787.8" x2="18194" y1="9221.2" y2="9221.2" gradientUnits="userSpaceOnUse">
   <stop stop-color="#B2B3B3" offset="0"/>
   <stop stop-color="#C9CACA" offset=".12941"/>
   <stop stop-color="#D9DADA" offset=".6"/>
   <stop stop-color="#EBECEC" offset=".76078"/>
   <stop stop-color="#9D9E9E" offset="1"/>
  </linearGradient>
  <radialGradient id="a">
   <stop stop-color="#D9DADA" offset="0"/>
   <stop stop-color="#727271" offset="1"/>
  </radialGradient>
  <radialGradient id="g" xlink:href="#a">
  </radialGradient>
 </defs>
   <path class="fil0" d="m2619 0c5298 1252 10545 1246 15743 0v8321c0 4387-3960 8734-7871 10121-3457-1292-7872-5334-7872-10121v-8321z"/>
   <path class="fil1" d="m2788 197c5184 1226 10319 1220 15406 0v8143c0 4293-3876 8548-7703 9905-3383-1264-7703-5220-7703-9905v-8143z"/>
    <circle class="fil0" cx="3687" cy="2160" r="417"/>
    <circle class="fil2" cx="3687" cy="2160" r="350"/>
    <circle class="fil0" cx="17359" cy="2160" r="417"/>
    <circle class="fil3" cx="17359" cy="2160" r="350"/>
    <circle class="fil0" cx="3687" cy="5021" r="417"/>
    <circle class="fil2" cx="3687" cy="5021" r="350"/>
    <circle class="fil0" cx="17359" cy="5021" r="417"/>
    <circle class="fil3" cx="17359" cy="5021" r="350"/>
    <circle class="fil0" cx="3687" cy="7992" r="417"/>
    <circle class="fil2" cx="3687" cy="7992" r="350"/>
    <circle class="fil0" cx="17359" cy="7992" r="417"/>
    <circle class="fil3" cx="17359" cy="7992" r="350"/>
    <circle class="fil0" cx="4310" cy="10523" r="417"/>
    <circle class="fil2" cx="4310" cy="10523" r="350"/>
    <circle class="fil0" cx="16736" cy="10523" r="417"/>
    <circle class="fil3" cx="16736" cy="10523" r="350"/>
    <circle class="fil0" cx="5521" cy="12944" r="417"/>
    <circle class="fil2" cx="5521" cy="12944" r="350"/>
    <circle class="fil0" cx="15525" cy="12944" r="417"/>
    <circle class="fil3" cx="15525" cy="12944" r="350"/>
    <circle class="fil0" cx="7685" cy="15328" r="417"/>
    <circle class="fil2" cx="7685" cy="15328" r="350"/>
    <circle class="fil0" cx="13361" cy="15328" r="417"/>
    <circle class="fil3" cx="13361" cy="15328" r="350"/>
    <circle class="fil0" cx="10509" cy="17162" r="417"/>
    <circle class="fil2" cx="10509" cy="17162" r="350"/>
   <path class="fil4" d="m12319 3203c-44-90-81-162-106-263-29-123-98-138-189-215-257-217-194-227-222-549-63 40-92 73-148 129-72 73-109 73-160 149-83 121-106 297-106 489 2 606-39 644-473 738-566 123-317-142-854 360-68 63-78 95-135 151-180 178-312 284-592 336-173 33-354 57-509 84-98 17-202 2-301 14-415 47-972 199-1356 1-137-71-319-120-465-19-122 85-132 300-167 452-133 567-73 552 222 859 2 1 5 1 8 2 54 168 147 328 271 482 48-154 132-307 235-460l88 1c55 156 144 306 260 449 47-148 127-296 225-444l98 1c101 151 184 302 232 453 115-143 204-292 258-447 43 1 85 2 127 2 99 148 179 297 226 445 111-138 197-281 252-430 58 3 113 6 165 9 93 142 168 284 213 425 96-119 173-241 228-368 10 3 19 7 26 10 115 65 154 157 203 306 44 136 137 226 221 282 70 362 13 651-218 838-20 1-44 2-70 3-44-172-129-338-246-500-61 162-163 322-285 481-42-2-85-5-127-8-45-171-129-336-245-496-59 156-156 310-273 464-56-3-106-6-149-8-44-172-129-337-245-498-60 160-161 318-281 474-50-5-95-12-133-22-99-159-182-316-231-472 83-21 172-46 266-75 376-115 662-171 861-168 131 2 275 16 428 44-265-194-544-293-835-297-174-2-426 43-756 136-331 92-584 138-757 136-313-5-637-102-974-292 104 185 266 332 483 441s446 165 688 168c130 1 299-22 507-71-88 110-159 225-209 346-65-1-126 2-179 10-7 150 64 318 193 406 75 52 153 235 263 254l503 73c308 27 683-38 972 36 72 18 167 10 249 12 390 9 830-26 1172 201 326 218 10 220-268 424-216 159-946 665-1099 708-174 49-231 85-423 85-118 0-111-34-246-34 48 101 215 240 42 294-145 44-313 53-452 99-89 30-119 67-196 111-82 46-123 74-206 126-54 34-44 18-95 61-21 17-52 46-81 71-166 141-338 375-332 618 208 10 425-192 223 219-88 180-117 344-155 554 179-61 781-522 301 323l-47 98c-5 40-1 31 3 47 82 20 403-275 413-32 5 111-114 413-137 527 71-2 89-24 129-58 296-257 444-363 404 118-10 122-40 189-50 294 161-55 542-669 425-32-21 114-65 196-74 282 122-49 136-182 221-267 21-21 307-261 307-68 0 96-131 480 41 456 69-11 100-57 149-111 65-72 82-136 207-146 86 144 17 426 110 546 95-29 19 9 81-67 99-120 140-239 299-243 56 164-12 375 172 400 111-16 209-394 330-394 157 0 96 198 131 353 128 14 174-76 234-164 34-51 72-146 150-159 155-26 70 206 147 326 85-16 207-368 272-458 266-10 120 215 257 433 4-4 8-17 9-14l228-542c208-46 195 223 286 386 54-40 64-63 71-161 11-144 44-312 123-431 58-89 102-86 160-4 71 99 100 192 149 312 105-54 124-211 137-318 22-173-39-281 153-278 72 102 113 356 204 409 80-140 37-315 77-469 24-94-31-56 60-79 146-38 76 146 260 151-1-211-57-536 24-704 149 5 149 163 240 248 63-207 91-497 149-697 217 2 119 140 248 209 5-218 14-449 82-650 268-8 60 119 244 134 39-69 39-250 55-317 27-116 1-236-4-338l71-61 161 15c1-166-22-366 56-504 446-787-43-1221-248-1717-387-936-159-780-265-1367-36-197-101-237-139-390-28-113-21-1458-21-1709 0-802-526-1178-690-1416-38-55-58-117-90-174-131-228-227-211-299-495-35-136 10-362-63-468-166 80-319 701-435 921-64 123-151 154-327 128z"/>
   <path class="fil5" d="m12313 3310c-43-88-80-158-104-256-28-120-96-135-184-209-251-212-190-222-217-536-61 39-89 71-144 126-70 71-106 70-156 145-81 118-104 289-103 477 2 590-38 628-462 719-551 120-309-138-832 351-66 62-77 93-132 148-175 173-304 277-577 328-168 31-346 55-497 81-95 16-196 3-293 14-405 45-947 194-1322 1-134-69-312-118-453-19-119 83-129 293-163 441-130 553-72 538 216 837 2 1 5 2 8 3 52 163 143 319 264 469 47-149 129-298 229-448l86 1c54 152 140 298 253 438 46-144 124-289 220-433l96 1c98 147 179 294 225 441 113-139 199-284 253-435 41 0 83 1 124 2 95 144 174 289 219 433 109-134 193-273 246-419 57 3 110 6 161 9 90 138 164 276 208 415 93-116 169-236 222-360 10 4 18 7 25 11 113 62 151 152 198 298 43 132 134 220 216 274 68 354 13 635-213 818-19 1-42 2-68 2-43-167-126-329-239-486-60 157-159 313-279 468-41-2-82-5-124-7-43-167-125-328-239-485-57 153-152 303-266 453-54-3-103-6-145-8-43-167-125-329-239-485-59 156-156 309-274 462-48-5-93-12-130-22-96-154-177-308-225-460 81-21 168-45 260-73 366-112 645-167 839-164 128 2 268 16 417 43-258-189-530-285-813-289-170-2-416 42-738 132-323 90-569 135-738 132-305-4-621-98-950-284 102 180 260 324 471 430 212 106 435 161 671 164 127 1 292-22 495-70-87 108-156 220-205 338-63-1-123 2-174 10-7 146 62 310 188 396 73 50 150 229 257 247l490 72c300 26 666-38 948 34 70 18 163 11 243 12 380 9 809-25 1142 197 319 212 11 214-260 413-211 154-923 648-1072 690-170 48-225 83-412 83-116 0-109-33-241-34 47 99 210 235 41 287-141 44-305 52-440 97-87 29-117 65-192 108-79 45-120 72-200 123-53 34-43 18-93 59-21 17-51 45-79 70-162 137-329 365-324 602 203 10 415-187 218 214-86 175-114 336-151 540 175-59 761-508 293 315l-45 96c-6 39-2 29 3 45 79 20 392-268 402-31 4 108-111 403-134 514 70-2 87-23 126-57 289-250 433-353 394 115-10 119-39 185-48 288 156-55 528-653 413-32-20 112-63 191-71 275 119-48 133-177 215-260 20-20 299-255 299-66 0 93-127 468 40 444 67-10 98-56 146-109 63-69 80-132 202-142 84 141 16 416 107 533 92-28 18 9 79-66 96-117 136-232 292-236 53 159-13 365 167 390 108-16 204-384 322-384 153 0 94 193 127 344 125 13 170-75 229-161 33-49 70-141 146-154 151-25 68 200 143 318 83-16 202-359 266-447 259-10 116 210 250 422 3-4 8-16 9-13l222-529c203-45 190 218 279 376 53-39 62-61 70-157 10-140 42-303 119-420 57-87 100-84 157-4 69 97 96 188 145 304 102-52 120-205 133-310 21-168-38-274 149-271 71 100 110 347 199 399 78-136 37-307 75-457 23-92-31-54 58-78 143-37 75 143 254 148-1-205-55-523 23-686 146 4 146 159 235 241 61-202 89-484 145-679 212 1 116 136 242 203 4-212 14-438 80-633 261-9 58 116 238 130 38-67 38-243 53-309 27-113 1-229-4-329l70-60 157 15c1-162-22-357 54-491 435-768-42-1191-242-1674-377-913-155-761-258-1333-35-193-98-231-135-380-28-111-21-1422-21-1667-1-782-513-1149-673-1381-37-53-56-114-88-169-128-223-221-206-292-483-33-133 11-353-61-456-162 78-310 683-424 898-63 119-147 149-318 124z"/>
   <path class="fil6" d="m0 21334l1572-1918c279-340-1572-602-1572-1053 6994-2971 13988 1981 20982-991l-1338 2094c-179 279 1241 302 1326 774-6994 2971-13976-1877-20970 1094z"/>
   <path class="fil7" d="m196 21164l1543-1765c273-312-1543-553-1543-968 6863-2734 13726 1822 20590-911l-1313 1925c-268 394 1313 297 1313 773-6864 2733-13727-1787-20590 946z"/>
   <path class="fil8" d="m4769 18251l462-320c77 105 132 200 165 286 34 85 51 169 53 251 1 83-11 160-37 230-42 114-102 223-183 325-80 103-198 227-352 372-31-35-64-60-99-75-34-15-67-22-98-22-42 1-85 8-132 23-46 14-109 42-189 83-31-34-60-56-87-68-36-16-80-24-130-23-49 1-95 8-138 22-42 14-94 40-156 78l-28-21c99-179 148-322 146-429-1-63-20-114-57-153s-78-59-123-58c-26 0-53 12-80 35l-29-20c35-76 89-115 162-116 25-1 49 5 75 17 25 11 51 29 77 54-8-231-50-408-126-530-37-62-81-92-129-91-23 0-43 10-61 31-17 20-30 59-38 118l-36-8c3-89 22-159 58-209 36-51 86-76 150-77 59-1 117 22 175 70s107 126 145 236l460-320c65 78 125 181 180 309zm-628 56c17 57 29 122 35 194 46 25 85 43 116 51 32 9 66 13 102 12 36 0 70-6 102-15 32-10 72-29 118-56-15-79-33-146-55-202s-58-123-108-201l-310 217zm641-17c12 29 20 55 24 77 5 22 10 63 16 123 48 24 87 39 117 47 29 7 61 11 95 10 34 0 67-5 98-15 30-9 67-25 110-49-7-63-19-119-38-169-28-76-67-154-116-234l-306 210zm-168 249c-51 26-92 44-123 54-32 9-66 14-102 15-33 0-66-4-101-13s-71-22-109-41l1 25c1 85-14 179-45 283 38-17 73-30 106-39 32-8 62-13 90-13 42-1 81 4 117 16 36 11 79 33 129 64 30-101 44-199 42-294 0-13-1-32-5-57zm629-3c-48 22-87 36-116 43s-60 11-94 12c-32 0-66-4-100-11-35-8-71-21-108-37-1 58-5 106-13 143s-24 86-49 148c29-11 58-19 85-24 27-6 53-8 77-9 48-1 91 5 131 16 39 12 81 31 125 59 43-122 64-227 62-314v-26zm-80 387c-44-30-83-51-118-62-35-12-75-17-119-16-29 0-60 4-92 11-32 8-65 19-99 33-32 61-70 121-114 181-45 59-109 134-195 225 100-56 183-94 248-116 66-22 128-33 186-34 45-1 96 9 152 30 60-80 110-164 151-252zm-601 17c-49-34-89-56-119-67-31-12-65-17-102-16-33 0-68 6-105 17-38 11-78 28-121 50-27 73-56 138-86 196-29 57-69 121-118 192 96-53 177-89 241-110 64-20 127-31 188-32 29-1 62 2 101 7 49-77 89-156 121-237zm1364-855l122 5-141 201-41-2 60-204zm-90 325l165 148-80 71-23 524c-3 55 0 92 9 109 8 17 17 25 27 26 7 0 13-1 19-4 9-5 26-17 52-38l21 30-213 160c-49-39-81-75-94-108-14-33-18-90-15-171l25-537-70-77 177-133zm1014 73l120 156 101-82 24 28c-48 37-78 66-89 86-16 27-25 65-30 115l-41 458c-4 42 0 74 11 96 7 14 16 22 26 23 9 1 31-10 66-32l20 32-220 150c-49-45-80-84-92-116-13-32-16-83-9-151l47-526-76-97-175 117-48 533 66 76-184 121-157-152 79-63 44-489c6-70 4-117-8-143-8-17-18-27-30-28-13-1-33 10-61 32l-20-31 218-150c53 47 85 83 97 109 12 25 16 60 12 103l-3 34 312-209zm5446 361l20 30c-101 55-179 118-232 187-69 89-109 189-119 300-12 135 21 263 100 385 41-27 66-52 76-72 10-21 19-79 27-175l39-428 442-306c93 47 166 78 220 94 53 16 117 28 192 35l21 2 12 35-173 138c-104-21-221-71-348-150l-89 1094 36 4c92 9 177 1 256-24 78-24 161-68 249-132l26 31c-67 77-131 135-193 176-61 39-133 70-216 89-83 20-164 27-243 20-118-11-226-50-325-116-98-66-172-155-221-266s-69-223-59-336c13-138 66-263 160-374 74-86 188-167 342-241zm234 66l-120 86-40 436c-5 55-11 91-18 108-9 23-26 47-51 72-52 50-123 106-214 168 47 61 98 109 153 145 56 36 123 62 201 79l89-1094zm-5299-285l303-301 28 3-38 263 192 21-12 108-192-21-68 642 99 92 66-42 20 32-229 146c-64-81-140-140-227-175l2-20c27-14 45-30 56-48 13-22 22-56 27-101l59-547-91-10 5-42zm1016 5l232 347-464 248-21 175 210 114 162-84 20 32-336 178c-59-41-108-71-147-90-39-20-95-43-168-68l2-24c24-10 40-24 50-42s18-58 25-121l66-546c62-15 114-29 156-42 30-10 101-35 213-77zm-158 93l-14 5-52 434 273-147-207-292zm1057 19l121 192-160 109-100-165-105 74-71 554 99 93 107-64 20 32-268 164c-47-53-87-92-120-117-34-25-71-46-112-63l2-20c31-16 52-33 63-53 12-19 21-56 28-113l50-392c7-49 5-83-3-100-9-18-20-28-33-29-14-2-35 9-64 33l-18-32 220-146c49 48 81 89 97 122 10 21 13 48 9 82l238-161zm1740 590l207 141-52 403c-54-2-104 5-150 21-45 15-99 45-160 88-44-34-83-58-116-74-33-15-69-25-108-30-60-8-116 4-167 34-19 11-32 16-40 15-7-1-13-5-20-13-6-8-8-16-7-23s9-17 24-28c9-6 25-19 46-39l99-97 146-148-196-139 45-355c68-12 122-28 163-49 40-20 80-50 120-90 78 45 140 77 188 97 35 14 68 23 101 27 35 5 64 1 85-12 22-14 34-29 36-46 1-11-4-23-15-37-22-25-32-48-29-69 2-20 10-35 22-45 13-11 25-15 39-13 18 2 33 12 45 31 13 18 17 40 14 67-4 28-13 54-28 79-15 24-41 55-79 93l-213 211zm-285 28l119 84 244-248c-44 5-81 6-112 2-78-10-150-45-217-107l-34 269zm152 110l-269 277c29-6 56-9 80-11 25-1 47-1 67 2 72 9 145 43 217 102l35-278-130-92zm-562-922l121 16-158 188-41-5 78-199zm-119 316l153 163-86 63-69 520c-7 55-7 91 0 109s15 27 25 29c7 1 13 0 19-3 9-4 27-15 55-33l19 32-227 141c-46-43-74-82-84-116-11-34-10-91 0-171l71-533-63-83 187-118zm3805 539l-50 719c-99 32-171 59-216 81-34 17-67 37-99 63-89-64-163-108-222-134-45-20-96-33-154-39l-8-20c25-19 42-36 49-52 11-22 18-58 21-110l37-527c121-31 226-79 315-144 86 66 195 120 327 163zm-488 596l241 119 43-611c-75-42-129-69-160-83-22-10-49-19-82-27l-42 602zm1896-651l27 26c-37 32-61 57-74 76s-21 38-25 57-7 58-8 118l-6 399c-1 52 4 88 14 105s20 26 29 26c13 0 35-12 67-36l22 30-208 166c-48-38-79-69-93-94-20-36-30-74-29-115l9-579-94-85-155 139-8 521 71 79-174 126-166-131 72-77 7-478c1-56-2-92-10-108-12-22-39-49-83-79l-154 122-8 539 71 79-170 126-169-131 75-77 8-515c1-54-5-92-18-116-10-18-20-27-28-28-11 0-32 12-64 37l-22-30 203-166c42 31 72 56 87 76s26 41 32 64c3 16 5 49 4 98l290-232c63 51 104 93 123 126s29 74 32 125l271-244 156 150 96-89zm334-410l122-7-121 214-41 2 40-209zm-58 333l180 131-73 78 29 524c3 55 9 91 19 107s20 24 30 23c7 0 13-2 19-6 7-5 23-19 47-43l25 29-197 180c-53-34-88-67-104-98-17-32-27-88-31-169l-30-537-77-70 163-149zm926-67l146 130 84-99 29 23c-40 45-64 79-72 101-10 30-12 69-8 119l44 457c4 43 14 73 29 93 10 12 20 18 30 17 9-1 29-15 60-43l25 27-189 189c-57-36-94-68-112-97s-30-78-37-147l-50-525-94-82-149 147 51 533 79 63-158 153-183-120 66-77-47-489c-7-70-18-116-35-139-11-16-23-23-35-22-12 2-30 16-53 43l-26-27 187-188c60 36 99 66 115 89 17 23 27 56 31 99l3 35 269-263zm778-101l315 96 165-114 30 214-176-9 61 433c10 70 21 117 33 141 15 31 43 65 84 103 65 62 100 109 104 140 5 30-6 62-31 94s-96 86-214 162c-44-9-87-14-127-16-39-2-77 0-112 4-84 12-179 41-285 86l-18-31 189-295-249-130-98-690c123-45 232-107 329-188zm138 213l-272-53 89 627 153 79 101-158-71-495zm-163 927c81-25 147-41 199-49 46-6 93-7 142-1 49 5 99 17 151 35l35-30c-97-68-165-125-203-170s-65-97-82-154l-242 369z"/>
</svg>