<?xml version='1.0' encoding='utf-8'?>
<svg xmlns="http://www.w3.org/2000/svg" width="210mm" height="210.3mm" clip-rule="evenodd" fill-rule="evenodd" image-rendering="optimizeQuality" shape-rendering="geometricPrecision" text-rendering="geometricPrecision" version="1.1" viewBox="0 0 20982 21011">
 <defs>
  <style type="text/css">
    .fil0 {fill:#7C261D}
    .fil2 {fill:#995642}
    .fil4 {fill:#7C261D;fill-rule:nonzero}
    .fil5 {fill:#FECC00;fill-rule:nonzero}
    .fil3 {fill:url(#c)}
    .fil1 {fill:url(#d)}
  </style>
  <linearGradient id="c" x1="5546.4" x2="15441" y1="9302.2" y2="9302.2" gradientUnits="userSpaceOnUse">
   <stop stop-color="#FFED00" offset="0"/>
   <stop stop-color="#CC9E20" offset=".25882"/>
   <stop stop-color="#CF9A30" offset=".52157"/>
   <stop stop-color="#662D29" offset="1"/>
  </linearGradient>
  <linearGradient id="d" x1="2787.8" x2="18194" y1="9334.1" y2="9334.1" gradientUnits="userSpaceOnUse">
   <stop stop-color="#6F0000" offset="0"/>
   <stop stop-color="#C83E22" offset=".078431"/>
   <stop stop-color="#FF9760" offset=".16078"/>
   <stop stop-color="#fff" offset=".23922"/>
   <stop stop-color="#FF6728" offset=".54902"/>
   <stop stop-color="#CC2900" offset=".81176"/>
   <stop stop-color="#9F1D2C" offset=".92157"/>
   <stop stop-color="#6D091D" offset="1"/>
  </linearGradient>
 </defs>
   <path class="fil0" d="m2523 0c5363 1268 10674 1262 15935 0l-117 2430c-1662-70-2419 1401-2419 2832 0 1432 805 3222 2466 3153-42 4416-3959 8856-7897 10253-3482-1301-7913-5462-7958-10275 1622 26 2398-1719 2398-3131 0-1786-1076-2899-2432-2881h-2l26-2381z"/>
   <path class="fil1" d="m2788 310c5184 1226 10319 1220 15406 0v1963c-26-1-52-2-78-2-1311 0-2374 1400-2374 3127 0 1726 1063 3126 2374 3126 26 0 51-1 77-2-41 4270-3895 8486-7702 9836-3366-1258-7659-5180-7702-9834h1c1311 0 2374-1400 2374-3126 0-1727-1063-3127-2374-3127h-2v-1961z"/>
   <path class="fil2" d="m8912 8373c-69-325-126-781 36-1019 97 142 223 296 325 383 16-134 4-360 36-541 105 6 231 37 383 102 972 413 440 973-52 1122-30-104-78-221-142-309-37 100-99 234-173 339-69-12-126-42-161-92-18-24-47-265-81-287-46 78-122 263-128 364-130 34-322-112-357-9-21 61 21 148 59 195 20 25 176 213 181 217 31 31 62 63 94 93 66 63 128 120 194 176 104 88 199 161 320 213 69 28 104 22 127 32l-288 232c-68 59-1058-585-1207-675-168-113-353-233-547-358-1-266 45-444-176-597-185-127-450 72-566 166-172-51-404-211-608-54-163 126-153 443-157 671-90 94-136 75-158 210-84 530 464 601 515 651 53 68 11 17 52 99 67 136 96 181 216 276 239 189 247 80 506 49 45 75 147 351 158 453 28 264-66 353-59 569 166-20 306-318 451-397 245 249 64 806 55 995 180-43 314-344 494-440 184 144 228 429 336 578 47-43 121-163 223-310 9 33 20 66 31 97 12 32 30 74 51 116l-1031 573c-181 88-377 189-583 294-230-132-362-261-605-146-202 97-162 426-139 573-130 124-385 245-351 500 27 204 308 354 503 471 36 125-3 155 103 242 416 338 752-101 821-120 85-12 20-2 112 4 151 10 204 8 347-49 283-113 193-174 295-414 88-1 377 48 471 90 243 108 273 233 464 335 65-153-123-423-119-588 339-88 730 347 889 449 53-178-141-444-134-648 203-81 451 5 633 1 67 74 138 143 212 207 125 108 367 293 518 364 23 11 44 24 68 35l222 88c66 23 256 72 333 65-48-215-33-504 11-685 174-715 937-905 1549-1233-41-111-114-249-218-415-133-214-214-382-245-503-38-150-42-300-10-452 31-151 95-275 191-370-61 239-67 454-18 648 27 107 96 255 208 444 112 188 181 335 208 443 11 42 18 84 22 127 344-208 616-480 666-953 2-15 3-24 5-30-41-85-96-181-163-290-133-213-215-381-246-503-38-149-41-299-10-451s95-276 192-370c-62 239-68 454-19 647 27 107 97 256 208 444 98 164 163 297 196 400 212-189 322-471 327-780 4-189-31-398-103-588-23-41-49-84-78-130-133-213-214-381-245-503-38-149-42-299-10-451 31-152 95-276 191-371v1c-61 239-67 454-18 647 22 88 72 203 151 345 58-79 129-157 180-213 139-149 290-291 441-435 91-86 126-142 167-249 35-92 60-197 64-313 24-588-425-1296-793-1747-124-151-108-142-41-464 19-90 36-236 11-345-29-128-123-199-195-263-78-68-154-132-234-191-84-61-392-281-493-341-49-28-81-50-125-77-389-236-1138-625-1585-550-108 17-202 85-353 135-229 76-548 131-711 287-96 93-106 217-163 251-375 224-1182 174-1366 766-25 78 5 59-110 113-102 48-234 94-329 153-98 60-98 180-106 283-5 58-8 107-12 163-6 78-2 94-65 138-346 240-902 580-1121 924-60 95-123 149-50 315 60 134 134 165 229 211 110 52 120 149 200 249 67 84 150 132 267 136 115 3 70 31 245 173 54 44 228 188 294 187zm-974 6227c152-83 314-276 293-443-12-97 6-24-29-89-107 6-108 39-214 61-132 28-127-23-244 39-10 129 69 348 194 432zm-1553-284c82-76 166-206 175-316l-364-318c-169 262-70 528 189 634zm88-1832c-281-79-540 492-377 592 99 61 278-40 301-189 8-55-8-100 13-187 23-93 64-120 63-216zm552 2305l217-390c-173-54-109 21-357-77l-160-38c-41 195 60 387 300 505zm-941-4645c148 91 396 135 531 33 77-58 23-6 61-70-57-89-87-74-159-154-90-100-44-122-155-192-117 56-268 233-278 383zm-530-1486c107 33 261 40 360-7l94-474c-311-15-492 203-454 481zm1630-840c-72-283-696-221-701-31-3 117 173 221 314 167 52-20 83-57 169-82 92-27 135-5 218-54zm-1720 1631l446-8c-40-176-72-84-112-347l-47-158c-189 63-305 246-287 513zm4605-4049c210 58 259 158 174 342-245 178-521 298-811 391 232-208 451-440 637-733z"/>
   <path class="fil3" d="m8944 8392c-69-318-124-765 34-999 96 140 220 291 319 375 16-131 4-352 36-530 102 6 226 37 374 100 953 405 432 954-50 1100-29-102-77-217-139-302-37 97-97 229-170 332-68-13-123-42-158-90-17-25-45-261-79-282-45 76-120 258-125 357-128 34-316-110-351-9-20 60 21 145 58 191 20 24 173 209 178 213 30 30 61 62 92 91 64 61 125 118 190 172 102 86 195 159 314 209 67 28 102 22 124 32l-282 227c-67 58-1037-574-1184-662-163-111-345-228-535-351-1-260 44-435-173-584-181-125-441 70-554 162-169-50-397-207-597-53-159 123-149 435-153 658-88 92-134 73-155 206-83 519 455 589 505 638 51 66 11 16 51 97 65 133 93 177 211 270 235 186 243 79 496 49 44 73 144 343 155 443 28 259-64 346-58 558 163-20 300-311 442-389 241 244 63 790 54 975 177-42 308-337 484-431 181 141 224 420 329 567 47-43 119-160 219-305 9 33 20 65 31 95 11 32 29 73 50 115l-1010 561c-179 86-371 185-572 288-226-129-355-255-593-142-199 94-159 417-137 561-127 121-377 240-343 490 26 199 301 346 492 462 36 122-3 152 101 236 409 332 738-98 805-117 83-12 20-2 110 4 148 10 200 8 340-48 277-111 189-171 290-406 85-1 369 47 461 88 238 106 268 229 454 329 64-150-120-415-116-577 332-86 716 341 871 441 52-175-137-436-131-635 199-80 442 4 620 0 66 72 136 141 209 204 121 105 359 286 507 356 23 11 43 24 67 34l218 87c63 22 250 70 325 64-46-212-32-495 11-672 171-701 919-887 1519-1209-41-109-112-244-214-407-130-209-210-374-240-493-38-146-41-294-10-442 30-149 93-270 187-363-60 234-66 445-18 635 27 105 95 250 205 435 109 184 177 329 204 434 10 41 17 83 21 125 337-204 604-471 653-934 2-15 2-24 4-30-40-83-93-178-159-283-131-210-211-374-241-494-37-146-41-293-10-442s93-270 188-363c-61 234-66 445-19 635 27 105 95 250 205 435 95 161 159 291 191 392 208-186 316-462 321-764 4-186-30-391-101-577-23-40-48-83-76-127-131-209-210-374-241-493-37-147-41-294-10-443 31-148 94-270 188-363-60 235-66 446-18 635 22 86 71 199 148 338 56-78 126-154 177-208 136-147 284-286 432-427 89-84 123-140 163-244 35-90 59-193 63-306 23-577-416-1271-777-1714-121-148-106-138-40-454 18-89 35-231 11-338-29-125-121-196-192-257-76-68-151-130-229-188-82-60-384-276-483-334-48-28-80-49-123-76-381-231-1115-612-1553-539-106 17-198 83-347 133-223 74-537 127-696 281-94 91-103 212-159 245-368 220-1159 171-1340 751-24 77 5 59-108 111-100 47-229 93-322 150-96 59-96 177-104 278-5 56-8 105-12 160-6 76-2 91-64 135-338 235-883 568-1098 906-59 92-121 146-49 308 58 132 131 162 224 207 108 51 118 146 197 244 65 83 146 130 261 133 112 3 68 31 240 170 53 43 223 184 289 183zm-955 6103c149-81 307-270 287-434-11-95 6-23-29-87-104 5-105 38-209 60-129 27-125-22-239 38-10 127 67 341 190 423zm-1522-278c80-74 162-202 171-309l-357-312c-165 256-68 517 186 621zm86-1795c-276-78-529 482-370 580 98 60 272-39 295-186 9-53-8-97 13-183 23-91 62-117 62-211zm541 2259l212-382c-169-53-107 20-349-76l-158-37c-39 191 60 379 295 495zm-922-4553c145 89 387 132 520 32 76-57 23-6 60-68-56-88-85-73-156-152-88-98-43-119-152-188-115 55-262 229-272 376zm-520-1457c104 33 256 40 353-6l92-465c-305-15-482 199-445 471zm1598-822c-71-278-682-218-687-31-4 114 169 217 308 163 50-19 80-56 165-80 90-26 132-5 214-52zm-1686 1598l437-8c-39-173-71-82-110-340l-46-155c-185 61-299 241-281 503zm4513-3969c206 57 255 155 171 336-240 173-510 291-795 383 227-205 442-432 624-719z"/>
   <path class="fil4" d="m0 17050l1572 1918c279 340-1572 602-1572 1053 6994 2971 13988-1981 20982 990l-1338-2093c-179-279 1241-302 1326-774-6994-2971-13976 1877-20970-1094z"/>
   <path class="fil5" d="m196 17220l1543 1764c273 313-1543 554-1543 969 6863 2733 13726-1822 20590 911l-1313-1926c-268-393 1313-296 1313-772-6864-2734-13727 1787-20590-946z"/>
   <path class="fil4" d="m3622 18515l-190 1335 66 10 191-1335-67-10zm-1112-157l-191 1333 67 10 191-1333-67-10zm-247-73l700 100-2 10-259-3c-12 34-27 95-45 184-17 88-30 163-39 226-8 54-16 120-23 200 91 31 230 60 417 87 93 13 180 24 262 31 82 8 157 12 226 11 14-61 27-136 40-222 7-51 13-103 17-155 5-52 8-94 9-126s2-70 3-115l-250-67 1-10 698 100-1 9-201 4c-17 46-36 125-57 237-21 111-38 220-54 326l-46 322c-27 193-38 339-32 438l193 62-1 10-700-101 1-9 255 2c33-107 61-224 83-354 6-34 12-74 17-122 6-48 10-98 14-151l-907-129c-10 47-22 122-36 225-9 61-17 132-24 214-8 82-10 147-6 194l247 69-2 10-701-100 2-10 198-5c9-25 20-71 34-136 15-66 30-140 45-223 15-82 27-152 35-208l51-355c1-10 5-44 11-102 6-57 11-115 15-172 3-58 4-100 2-127l-191-59 1-10zm15709 409l43-297c10-76 20-164 29-263s14-178 14-235l-226-67 2-10 632 90c120 18 212 55 276 113 65 58 107 120 126 185 18 65 25 120 18 164-8 61-30 113-64 157-35 44-76 77-125 99-48 21-96 32-144 30v4c41 24 74 52 99 85 19 26 40 61 63 105 23 45 53 106 91 184 37 77 67 137 90 181 24 44 46 80 66 109 46 61 96 95 148 103l-1 10-167-24c-94-13-164-52-211-116-19-25-37-54-54-87s-44-87-81-161c-37-75-68-137-93-185-26-49-46-84-62-105-24-31-47-53-68-66s-54-22-98-28c-41-6-72-8-96-7-8 34-16 72-22 114l-25 178c-11 75-17 175-19 300l235 68-1 10-714-102 1-10 231-1c18-64 39-153 62-270 22-116 37-201 45-255zm254-412l-23 157c-8 56-13 108-16 157 24 7 60 14 108 21 82 12 150 7 204-14 55-21 96-52 124-94s45-90 53-144c8-53 5-104-10-152-14-48-36-89-65-125-28-36-62-65-100-88s-77-37-116-43c-37-5-67-7-89-4-10 36-23 88-38 157-15 68-26 126-32 172zm278 526l165 333c40 78 77 135 112 171s79 58 132 67l1-10c-48-22-104-96-167-223l-133-264c-28-58-56-102-84-134-27-31-63-55-108-70l-5 7c33 28 62 69 87 123zm-394-908l-190 1333 68 9 191-1332-69-10zm265 22l-1 9c88 15 158 47 212 96 53 49 89 105 108 168 18 62 23 123 15 180-18 128-87 213-207 254l5 5c68-7 127-35 178-83 50-49 81-111 92-187 8-58 4-113-12-165-16-51-42-95-77-133-35-37-75-68-122-92-46-23-94-39-143-46l-48-6zm-14164 661l-75 1344 67 4 76-1344-68-4zm-293-45l1-10 1033 59 7 303-15-1-57-240c-55-7-116-13-185-17-125-7-225-4-303 10-19 103-32 222-39 357-5 84-6 152-4 205 102 11 167 18 194 19 74 4 149 4 227 0l53-162 16 1-23 413-16-1-36-177c-56-9-118-16-186-20-85-5-163-5-233-1-13 74-19 147-20 219-4 92-7 168-8 228-2 60-1 111 2 155 77 28 180 46 308 53 74 4 136 5 187 2l91-229 13 1-39 302-1044-59v-10l234-21c7-26 14-66 21-120s14-115 21-182 13-124 17-169c3-46 6-86 8-120l14-244c2-31 3-75 5-133 1-57 1-117 1-178-1-62-3-124-6-185l-239-48zm12892-621l435 1233 65 4-463-1317-37 80zm-20 80c-20 33-46 82-78 147-33 64-62 124-89 180-26 56-54 116-83 180-28 64-48 106-58 126 39 7 83 13 133 18 51 5 99 8 145 11 114 6 206 7 279 2-20-75-56-181-107-319s-99-253-142-345zm118-266l364 1025c47 133 103 267 168 399l159 43-1 10-684-39v-9l266-19c-6-65-20-135-42-212s-47-144-76-201l-608-35c-30 64-54 117-72 158s-36 84-53 128-28 82-35 112l252 48v10l-542-31v-10l181-23c48-73 92-153 133-242l514-1116 76 4zm-11206 1038l521 1200 65-1-555-1281-31 82zm-15 81c-16 35-39 86-67 152s-53 129-76 187c-22 57-46 119-70 185-24 65-40 108-49 129 39 5 83 7 134 9 51 1 99 1 145 1 114-2 207-8 279-18-26-73-69-176-130-310s-116-246-166-335zm100-273l434 997c57 129 122 259 196 386l162 32v10l-686 9v-10l264-37c-11-64-30-133-57-209-28-75-57-140-90-195l-609 9c-25 65-45 119-60 161-16 43-30 87-44 132-14 46-23 84-27 114l255 30v10l-543 8v-10l178-36c43-76 81-159 116-250l434-1150 77-1zm1048 819l-20-299c-5-77-14-165-26-264s-24-176-35-233l-235-18v-10l636-43c121-8 219 10 294 53 76 43 129 95 161 155 32 59 50 112 53 156 4 62-6 117-31 167-24 50-58 91-101 122-43 32-88 52-134 60v4c45 15 83 35 114 62 24 22 52 52 84 91s74 92 127 160 95 121 126 159c32 38 61 69 87 92 58 50 114 74 167 70v10l-168 12c-94 6-171-17-231-70-23-21-47-45-70-74-24-28-62-75-113-141-52-65-95-119-130-161s-62-72-82-90c-30-26-57-42-80-50-24-8-58-10-102-7-41 2-73 7-95 13-1 35-1 74 2 116l12 180c5 75 20 174 45 297l243 17 1 10-720 49v-10l225-49c5-66 7-158 5-276-2-119-5-205-9-260zm163-456l10 159c4 56 10 109 17 157 25 2 62 1 110-2 82-5 148-24 197-56s82-71 101-118 26-98 22-152c-3-54-17-102-41-146s-54-80-89-109c-36-30-75-51-117-66-42-14-83-20-122-17-38 3-67 7-88 14-3 37-5 91-5 161s1 129 5 175zm381 457l231 291c55 68 103 117 145 145 41 28 89 40 143 37l-1-10c-52-11-122-72-210-183l-185-230c-40-51-76-89-110-114-33-25-73-40-120-46l-3 8c38 21 74 55 110 102zm-574-806l91 1343 69-5-91-1342-69 4zm264-34l1 9c88-4 164 13 227 50 62 37 109 84 140 142 31 57 49 115 53 173 8 129-42 226-150 292l6 3c65-21 117-61 157-118 39-58 56-125 51-201-4-60-20-113-46-160-27-46-61-84-103-113-42-30-88-52-138-65-51-14-101-19-150-15l-48 3zm1840-160l859 1199 25-70-816-1138-68 9zm1412-114l-42 120 231 1150 69-9-254-1261h-4zm-1657 107l415-53c44 73 82 133 112 178 31 46 68 99 111 161l333 468c82 112 150 196 202 251 30-66 75-181 137-347l188-494c54-143 93-265 118-367l413-52 1 10-252 67c3 57 8 114 15 171 8 59 29 179 63 361 34 181 69 350 105 505 36 156 62 247 79 274l182 11 1 10-661 83-1-10 225-62c-1-50-7-116-17-199-6-45-15-105-27-178-13-73-28-157-47-252-19-94-38-181-58-261-19-80-35-134-47-161-24 52-49 112-74 178l-286 750c-45 122-74 209-88 261l-13 2c-17-28-47-72-87-133-41-61-74-108-99-143l-387-542c-66-93-119-166-162-221-1 26 0 86 2 178 3 92 7 193 12 300 5 108 11 200 16 275 5 76 10 135 16 178 4 31 10 75 20 132l188 12 1 10-474 60-1-10 179-58c6-29 7-119 3-272-3-153-9-310-18-471-8-161-17-278-26-349-3-25-9-64-18-116-24-36-65-73-124-111l-169-15-1-9zm2366-264l168 1335 67-8-168-1336-67 9zm-297 8l-1-9 1027-129 62 297-15 2-99-226c-55 3-117 8-185 17-124 16-223 37-297 64 1 105 9 225 26 358 11 84 21 151 33 202 102-7 167-12 195-15 73-9 147-23 223-41l22-169 17-2 51 411-16 2-67-168c-57 0-119 5-186 13-85 11-162 24-230 41 1 75 8 148 20 219 12 91 23 167 33 226 9 59 19 110 30 152 81 14 185 13 313-3 73-9 134-20 183-32l49-242 13-1 16 304-1038 130-1-9 226-63c2-27 1-68-1-122-3-55-7-116-12-183-5-68-10-124-14-170-5-45-9-85-13-119l-31-243c-3-31-10-74-19-131s-20-115-31-176c-11-60-25-121-39-181l-244-4zm2247 572l-27-300c-6-76-17-164-31-262-13-99-27-176-40-232l-235-14v-10l635-56c121-11 219 5 295 47 77 41 131 92 164 151 34 59 52 111 56 156 6 61-4 117-27 167-24 51-56 92-99 125-42 32-87 53-133 62l1 4c45 13 83 33 115 60 25 21 53 50 86 88 33 39 76 91 130 158s97 119 130 156c32 38 62 68 88 91 59 49 115 71 168 67l1 10-168 14c-94 9-172-13-232-65-24-20-48-44-72-72s-63-74-116-138c-53-65-97-118-133-159-36-42-64-71-84-88-30-25-57-42-81-49s-58-9-102-5c-41 4-72 9-95 15 0 35 1 74 5 117l16 179c6 75 23 174 50 296l244 12 1 10-718 64-1-10 224-54c4-66 4-158-1-276-5-119-9-205-14-259zm153-460l14 159c5 56 12 108 20 156 25 2 62 1 110-4 82-7 148-27 196-60s81-73 98-120c18-48 24-98 19-152-4-54-19-102-44-146-25-43-55-79-92-107-36-28-75-49-117-63-43-13-84-18-123-15-37 4-66 9-87 16-3 38-3 91-2 162 1 70 4 128 8 174zm391 450l237 286c56 67 105 114 147 141s90 39 144 35l-1-10c-52-10-123-70-214-179l-189-227c-41-49-78-86-112-111-34-24-75-39-121-44l-4 8c39 20 76 54 113 101zm-591-794l118 1340 70-6-118-1341-70 7zm264-40v9c89-6 165 9 228 45s111 82 144 139c32 57 51 114 56 172 11 129-37 227-144 295l6 3c65-23 116-63 154-122 38-58 54-126 47-202-5-59-21-112-49-158-27-46-62-83-105-112-42-29-89-49-139-62-51-12-101-16-151-12l-47 5zm1868-164c137-6 258 12 361 54 102 42 188 98 255 170s118 148 152 231c34 82 52 162 55 239 4 88-9 175-40 262-30 85-77 165-140 238s-143 133-239 179-205 72-325 77c-174 8-323-24-447-94s-218-160-280-269c-62-108-96-216-100-322-4-93 10-185 43-275 33-89 82-170 149-243 66-72 147-130 243-174 95-43 199-68 313-73zm8 68c-100 4-192 34-275 90s-147 135-193 236-66 219-60 353c6 145 39 266 98 364s132 168 219 213c88 45 178 65 269 61 74-3 144-20 210-52 65-31 123-75 173-132s88-126 114-207 37-171 33-269c-6-135-26-241-61-320-34-79-83-147-145-205-54-49-113-84-179-105s-134-30-203-27zm48-42l1 10c62 2 126 14 190 36 65 22 126 58 183 109 58 50 105 119 143 207 37 88 58 194 64 320 3 82-3 161-20 237-16 76-45 146-86 211-41 66-96 120-164 165-69 44-152 74-250 87l1 11c82-7 160-28 233-63s137-84 193-145c55-62 98-136 128-223s43-182 38-287c-5-115-27-215-65-301-39-87-90-157-152-213-63-56-132-97-206-123-75-27-152-40-231-38zm-95 14v-10c-91 4-178 28-263 70-84 41-157 96-220 165-62 68-110 144-143 229s-48 174-44 265c5 113 40 221 106 325s154 187 265 249 231 92 360 90v-11c-126-5-239-39-338-103-99-63-176-143-231-240-54-98-83-200-88-307-4-88 7-173 33-255s65-156 117-222c52-65 116-120 193-162 76-43 160-71 253-83z"/>
</svg>