<?xml version='1.0' encoding='utf-8'?>
<svg xmlns="http://www.w3.org/2000/svg" width="210mm" height="213.53mm" clip-rule="evenodd" fill-rule="evenodd" image-rendering="optimizeQuality" shape-rendering="geometricPrecision" text-rendering="geometricPrecision" version="1.1" viewBox="0 0 20982 21334">
 <defs>
  <style type="text/css">
    .fil6 {fill:#393185}
    .fil0 {fill:#5B5B5B}
    .fil7 {fill:#727271}
    .fil5 {fill:#BE2A22}
    .fil4 {fill:#393185;fill-rule:nonzero}
    .fil3 {fill:#434242;fill-rule:nonzero}
    .fil9 {fill:#EBECEC;fill-rule:nonzero}
    .fil8 {fill:url(#d)}
    .fil1 {fill:url(#e)}
    .fil2 {fill:url(#f)}
  </style>
  <linearGradient id="d" x1="5532.9" x2="15413" y1="9230.6" y2="9230.6" gradientUnits="userSpaceOnUse">
   <stop stop-color="#B2B3B3" offset="0"/>
   <stop stop-color="#EBECEC" offset=".12941"/>
   <stop stop-color="#EBECEC" offset=".18039"/>
   <stop stop-color="#898989" offset="1"/>
  </linearGradient>
  <linearGradient id="e" x1="2787.8" x2="18194" y1="9221.2" y2="9221.2" gradientUnits="userSpaceOnUse">
   <stop stop-color="#6F0000" offset="0"/>
   <stop stop-color="#C83E22" offset=".078431"/>
   <stop stop-color="#FF9760" offset=".16078"/>
   <stop stop-color="#fff" offset=".23922"/>
   <stop stop-color="#FF6728" offset=".54902"/>
   <stop stop-color="#CC2900" offset=".81176"/>
   <stop stop-color="#9F1D2C" offset=".92157"/>
   <stop stop-color="#6D091D" offset="1"/>
  </linearGradient>
  <linearGradient id="f" x1="2789.3" x2="18192" y1="13346" y2="13346" gradientUnits="userSpaceOnUse">
   <stop stop-color="#0C0A0E" offset="0"/>
   <stop stop-color="#0F0064" offset=".031372"/>
   <stop stop-color="#3C009A" offset=".090196"/>
   <stop stop-color="#C5D1FF" offset=".2"/>
   <stop stop-color="#fff" offset=".23922"/>
   <stop stop-color="#4270C1" offset=".56863"/>
   <stop stop-color="#3909A4" offset=".76863"/>
   <stop stop-color="#130064" offset=".94118"/>
   <stop stop-color="#000067" offset=".98824"/>
   <stop stop-color="#0C0A0E" offset="1"/>
  </linearGradient>
 </defs>
   <path class="fil0" d="m2619 0c5298 1252 10545 1246 15743 0v8321c0 4387-3960 8734-7871 10121-3457-1292-7872-5334-7872-10121v-8321z"/>
   <path class="fil1" d="m2788 197c5184 1226 10319 1220 15406 0v8143c0 4293-3876 8548-7703 9905-3383-1264-7703-5220-7703-9905v-8143z"/>
   <path class="fil2" d="m18192 8446c-63 4257-3905 8453-7701 9799-3358-1255-7637-5160-7702-9799 650 135 1299 816 1946 916 648 100 1295-381 1940-314 646 66 1291 680 1935 713 643 33 1286-515 1928-515 642-1 1282 546 1922 512 640-33 1279-648 1917-714 638-67 1274 414 1910 314 636-99 1271-779 1905-912z"/>
   <path class="fil3" d="m0 21334l1572-1918c279-340-1572-602-1572-1053 6994-2971 13988 1981 20982-991l-1338 2094c-179 279 1241 302 1326 774-6994 2971-13976-1877-20970 1094z"/>
   <path class="fil4" d="m196 21164l1543-1765c273-312-1543-553-1543-968 6863-2734 13726 1822 20590-911l-1313 1925c-268 394 1313 297 1313 773-6864 2733-13727-1787-20590 946z"/>
   <path class="fil5" d="m3479 1007c4719 1115 9394 1110 14024 0v7412c0 113-4 226-9 339-52 31-104 63-155 95 9-139 14-278 14-417v-7254c-4531 1087-9106 1092-13724 0v7254c0 136 4 271 12 406-51-31-102-62-154-93-5-109-8-219-8-330v-7412z"/>
   <path class="fil6" d="m17494 8758c-195 3791-3620 7478-7003 8678-3e3 -1122-6808-4567-7004-8687 52 31 103 62 154 93 238 3995 3934 7328 6850 8418 3286-1165 6611-4727 6848-8407 51-32 103-64 155-95z"/>
    <path class="fil7" d="m12937 6826c195 163 473 534 610 732 90 132 164 258 237 386 47 84 309 247 409 338 259 237 414 486 536 753 30 67 66 132-5 217-81 97-92 7-170 153-36 67-20 18-15 93 11 165-64 237-194 260-4 63 13 137 20 202 32 301-8 782-9 1047 0 96 259 319 558 469 253 126 491 264 529 287 235 311-253 488-462 560-62 189-37 397-432 439-133 215-125 388-380 374-166 689-415 480-569 550-70 32-170 104-238 139-1303 579-517-1687-248-2202 75-267 109-215 67-398-14-62-28-88-39-138-106 46-139 182-381 200-112 9-346-293-413-385-123-170-162-299-204-463-26-99-41-276-33-381 2-28 5-43 5-71l-9-71c-71-67-298-188-398-234l-293-113c-17-5-33-10-49-12-74-9-15-5-45 0 63 151 11 129-28 188-34 50 5 54-35 139l-78 184c-25 33-48 39-66 75-13 27-13 64-28 97-45 105-79 52-103 153-29 117-83 141-94 189-15 67 21 106-55 197-37 45-121 70-176 45-113-50-343-765-392-962l-84-343-104 77c-37 29-34 77-80 130-49 57-63 36-105 80-45 47-48 87-110 103-139 37-136-95-151-164-88-421-288-859-66-1326-375-123-408-266-579-408-13 371 118 1258-42 1602-941-447-125-468-332-1594-21-116-102-416-179-527-80-1-174-4-269-19l-215-32c-72-17-529-259-631-294-150 140-230 270-247 468-8 90-1 145 5 229 9 111 48 295-141 230-100-34-7-31-93-3-90 29-106-21-146-82-113 3-142-9-169-115-641-104 22-828 97-966-316-69-912-203-1092-535-89-161-104-455 168-467 330-29 802 268 400-179-114-148-664-278-589-599 45-190 279-176 373-247 470-150 582-180 1041-272 476-96 1180-106 1675-57 723 71 1435 258 2104 578 176 84 150 73 305 54 546-66 1708-71 2342 427-73 118-268 88-261 564 5 287 24 335-155 651z"/>
    <path class="fil8" d="m12876 6840c189 158 459 518 591 710 88 129 160 250 230 375 46 81 301 240 397 328 251 230 402 472 520 730 30 66 65 129-5 212-78 94-88 6-164 148-35 65-19 17-15 90 11 160-62 230-188 252-4 61 12 133 19 196 31 292-11 747-8 1017 3 272 433 522 658 638 121 62 371 132 442 226 228 302-246 474-449 543-60 184-35 386-419 427-129 208-121 376-369 362-160 669-402 467-551 534-69 31-165 101-232 136-1123 578-292-1732-148-2246 72-259 48-225 7-403-13-60-27-85-38-134-103 44-215 170-449 188-109 8-336-285-401-374-119-165-158-290-198-449-25-96-39-268-32-370 1-27 4-41 5-68l-9-70c-69-64-290-181-386-227l-284-109c-17-5-32-9-48-11-72-10-15-6-43 0 61 146 10 124-28 182-32 48 5 52-34 135l-76 178c-23 32-46 38-63 73-13 26-13 62-28 95-44 101-76 50-100 147-27 114-80 137-91 184-15 65 20 103-53 191-37 44-118 68-171 44-110-48-333-743-380-933l-82-334-101 75c-36 29-32 75-78 127-48 55-60 34-102 77-43 45-46 84-106 100-136 36-132-93-146-160-86-408-281-833-65-1286-363-119-396-258-562-396-12 360 115 1221-40 1555-913-434-122-454-322-1547-21-113-99-404-174-511-77-2-169-4-261-19l-209-31c-70-16-514-252-612-286-146 136-223 262-240 455-8 88-1 140 5 222 9 107 47 287-137 224-97-34-7-31-90-4-88 28-104-20-142-79-109 2-138-9-164-112-622-100 21-804 95-937-307-67-988-203-1164-525-85-157-100-442 164-453 305-13 850 296 491-169-111-143-736-281-663-592 43-185 345-194 453-228 456-146 565-175 1011-264 461-93 1144-103 1625-56 701 69 1393 250 2042 562 170 81 145 70 296 52 530-64 1657-69 2273 414-71 115-261 86-254 548 5 278 24 325-150 631z"/>
    <ellipse class="fil7" transform="matrix(1.1242 .20616 -.16749 .91336 6679.8 5110.8)" rx="123" ry="82"/>
    <path class="fil7" d="m7077 4893c336 147 542 672 459 1173-83 502-423 790-760 644-19-8-37-18-55-28 317 92 625-191 703-664 78-474-101-968-404-1145 19 5 38 12 57 20z"/>
    <path class="fil7" d="m10943 5542c491-485 2323 343 2059 610-147 149-30 28-47 40 196-249-1533-1009-2052-605 12-16 25-31 40-45z"/>
   <path class="fil9" d="m3187 18195l34-7c7 47 7 85-1 111-11 36-31 67-61 93-30 25-65 42-106 49-43 8-97 7-161-5l40 212 250-47-23 128-204 39 72 382c14 75 19 131 15 168-4 36-18 73-42 110-25 38-58 72-100 102-60 43-109 75-146 96l-315 176c-113-20-179-28-196-25-15 3-27 11-37 24-10 12-15 31-15 56l-35-2c-7-37-8-67-3-90 8-37 23-67 46-90 23-22 49-37 79-42 43-8 100-4 172 12 51 12 82 18 93 20 11 1 22 1 31-1 17-3 31-13 42-29 12-17 16-39 15-68s-10-88-27-177l-101-537-51 8c-83 16-142 37-178 63-37 27-65 66-86 116l-33-6c8-75 27-131 56-169 49-64 126-105 230-125 9-2 22-4 39-7l-32-171 56-8c60-11 116-34 170-69 54-36 97-74 130-115 22-28 44-66 65-115 98 39 175 54 231 43 25-5 44-15 59-31 15-17 24-41 28-72zm-453 305c-33 25-71 47-115 66l122 647c4 22 10 65 17 128 5 37 6 65 3 85-3 29-12 58-24 86-13 28-36 66-71 114 65-39 115-81 149-127 35-45 55-91 60-137 6-46 0-113-16-200l-125-662zm1311 17l31 8c-25 49-40 85-46 110s-6 58-2 100l33 347c5 57 13 93 22 106 10 14 20 20 31 19 7 0 12-3 19-6 3-3 14-14 31-32l22 23-160 167c-44-29-74-55-91-80-16-24-27-59-33-105l-229 218c-100-67-153-137-160-211-5-50 0-97 16-143 21-59 60-130 118-213l-118-198 9-25c21-1 37-2 48-3 64-6 118-36 162-89 42 18 87 33 135 42s85 12 110 10c11-1 20-4 25-8 6-5 15-17 27-37zm-190 173l-287-59 119 200 188 68-20-209zm24 244l-207-75c-24 69-33 129-29 179 9 88 55 156 140 206l115-110-19-200zm1478-450l24 21c-30 28-50 50-60 67-11 16-17 32-20 49-3 16-4 49-4 100l5 339c1 44 5 74 14 88 9 15 18 22 25 22 11 0 30-11 57-32l19 24-173 147c-41-31-68-57-80-78-18-30-28-62-28-96l-7-492-82-70-128 122 6 443 63 65-145 111-145-107 60-67-6-406c-1-48-5-78-12-92-10-18-34-40-72-65l-127 108 6 458 63 65-142 112-146-108 61-67-6-438c-1-45-7-77-18-97-9-16-17-23-25-23-9 0-26 11-53 33l-19-25 167-146c38 25 63 46 76 62 14 16 23 34 29 53 3 14 5 42 6 84l241-204c54 41 90 76 107 103 17 28 27 63 30 105l224-213 136 123 79-78zm390-321l104 2-115 173h-35l46-175zm-68 278l144 122-66 62-8 445c0 47 3 78 11 92 7 15 15 22 23 22 6 0 12-1 17-4 6-4 21-15 43-34l18 26-177 141c-43-32-70-62-82-90-13-27-18-76-17-144l8-457-61-64 147-117zm702-278v20c-44 20-76 46-94 78-19 32-30 81-33 147l-31 726 91 74 36-28 19 30-168 117c-48-45-84-75-108-90s-55-29-95-42l1-17c15-9 27-20 36-34 9-13 16-30 20-49 1-6 3-39 6-98l25-583c2-49 2-84-1-103-3-20-10-39-21-57s-30-39-57-62l12-16c50 16 93 46 131 91 43-41 81-69 116-83 33-14 72-21 115-21zm106 442l182-130c45 36 73 65 85 90 13 24 17 56 14 97l-1 18 259-179c78 95 114 193 107 294-4 54-22 107-53 159-32 52-79 101-142 145-62 44-162 102-300 171-60 31-96 50-108 59-26 17-45 34-56 52-9 12-14 27-15 43-2 28 10 54 36 80 26 25 61 40 106 43 32 3 60-1 82-11 11-5 21-16 32-33 12-17 21-28 28-33 8-5 16-7 26-6 11 0 19 4 26 10 5 7 8 15 8 25-2 17-16 34-42 49-42 24-92 34-152 30-62-4-110-23-141-55-32-32-46-68-43-109 2-40 24-78 65-113 19-18 31-30 36-37 14-20 24-39 29-56 6-17 10-42 12-74l28-390c4-54 0-92-11-112-8-16-19-25-30-26-9 0-22 5-37 17-3 2-6 5-11 9l-19-27zm277 116l-33 460c80-50 139-104 175-162 36-57 56-113 60-167 5-73-19-147-72-221l-130 90zm1316-421l151 16-145 1382-151-16 145-1382zm1037 66l38 5c5 28 17 49 35 63 24 18 66 31 124 39 37 4 156 16 357 34 121 11 196 18 226 22 89 12 164 37 223 76s104 93 135 162c31 68 46 160 45 273-1 79-16 253-44 521-114 52-202 99-265 141-166-70-314-113-445-130-89-12-173-12-252 0-79 11-164 35-255 71l-20-34c118-43 223-89 315-138s154-96 187-140 54-102 64-175c3-26 8-66 13-118 4-36 8-74 13-113 9-68 20-118 31-150 12-31 33-67 63-105l-21-3c-70 29-118 58-144 86-26 29-42 67-48 115l-30 288c-10 77-42 142-96 197s-176 128-366 220l-19-35c96-50 161-93 194-129 33-35 53-75 58-118 5-37-3-70-23-99-21-29-46-46-74-50-15-1-29 1-43 7-13 7-32 22-57 45l-22-29c24-45 53-76 87-93 34-18 72-24 115-19 13 2 26 5 41 10 15 4 31 11 47 18 3-31 6-59 9-82 11-85 37-152 78-201s114-96 218-141c-91-3-169-8-234-17-68-8-126-26-173-51-35-20-59-48-72-83-13-36-17-82-13-140zm628 309c-29 36-48 69-60 97-16 38-27 75-31 109l-35 321c-5 41-21 82-46 122-20 30-54 64-103 105 80-3 141-1 182 5l46 6 98-759-51-6zm52 324c30 27 57 47 80 59 24 12 50 20 78 23 29 4 56 3 82-3 26-5 57-18 94-36 5-123-15-210-62-260-47-49-124-81-231-95l-41 312zm-34 267c39-17 72-27 99-31 27-5 56-5 86-1s57 11 81 21c25 11 53 28 86 53l15-221c-37 17-68 27-95 32-25 4-53 5-83 1-29-4-56-12-83-25s-53-30-77-52l-29 223zm-24 182c65 14 118 27 158 41 40 13 102 37 187 73 11-82 17-123 18-126 1-7 3-33 8-78-31-28-59-49-84-61-25-13-53-21-83-25-32-4-61-3-89 3-28 5-60 18-97 37l-18 136zm1322-484l134 140-74 50-56 427c-6 49-4 85 7 108 7 16 16 25 26 26 8 1 24-6 48-21l16 28-191 109c-39-35-63-66-73-92s-12-65-7-117c-90 43-184 98-280 162-47-48-77-88-90-122-12-33-15-75-8-126l52-400c4-29 4-47 0-57-7-16-18-25-33-27-11-2-29 6-54 22l-16-28 211-133 134 140-68 46-56 430c-5 32-4 56 2 72 7 16 24 37 53 64l160-91 57-441-50-67 156-102zm248 124l263-250 23 3-37 223 163 20-12 92-162-21-70 544 83 80 57-35 17 27-197 120c-53-70-117-120-191-152l3-17c23-12 39-25 48-40 12-18 20-47 25-85l59-463-76-10 4-36zm466 111l188-120c43 37 69 68 80 93s14 58 9 98l-2 18 267-166c74 99 105 198 93 299-7 54-27 106-61 157-34 50-84 96-149 137-64 41-167 93-308 156-62 28-99 45-111 53-27 16-46 32-59 49-9 12-15 26-17 43-3 27 8 54 32 81 25 27 59 43 104 49 32 4 60 1 82-8 11-4 23-14 34-30 12-17 22-28 30-32 8-5 16-6 26-5 11 1 19 5 25 12s8 15 7 25c-2 17-17 33-45 46-42 23-93 30-152 23-63-8-109-28-139-62-30-33-42-70-38-111 5-40 29-77 71-110 20-16 33-28 39-35 14-19 25-37 31-54 7-17 12-42 16-74l47-388c7-54 5-91-5-113-8-16-17-25-29-26-9-1-22 4-38 15-2 2-6 4-11 7l-17-27zm270 129l-55 458c82-46 143-97 182-152 39-56 62-111 68-165 9-72-11-147-61-224l-134 83zm1263-396l152 13-123 1385-152-14 123-1384zm1929 48l14 37c-73 22-127 45-163 69-35 24-59 50-70 77-12 28-19 74-22 138l-7 168 330-240c65 46 113 88 146 127 32 38 53 77 63 115 9 38 12 99 8 185l-5 121c-3 64-9 111-18 141-9 31-27 61-52 91-37 43-99 95-187 158-62 46-102 77-117 95s-22 33-23 46c0 7 2 14 7 19 6 6 13 9 23 9 6 1 15 0 25-2 11-2 20-3 25-3 15 1 25 5 32 12 7 8 10 18 9 30 0 15-7 28-19 37-17 13-37 19-61 18-25-1-46-12-63-33s-25-45-24-73c1-20 9-42 23-68 15-26 50-70 105-133 55-62 91-110 108-142 17-33 30-73 38-121-66-34-127-52-182-55-70-3-140 10-210 39-69 29-151 82-244 159 38 0 66 1 84 2 43 1 100 8 172 18 20 3 38 5 53 5 27 2 51-4 72-16 22-12 44-34 67-65l35 21-194 249c-73-35-137-60-191-76-55-15-111-25-167-27-64-3-121 2-171 16-50 13-86 31-107 54-16 18-24 34-25 49 0 10 5 25 18 46 8 13 12 26 12 38-1 13-5 24-14 32-8 9-18 13-28 12-13 0-26-8-37-23-12-16-18-34-17-55 1-26 9-50 24-74 16-25 48-60 99-106 50-46 82-82 98-107 15-25 23-51 24-76 1-19-3-34-13-45s-24-18-41-18c-34-2-61 20-84 65l-36-3c7-42 18-74 32-95 14-22 35-39 62-54 21-11 49-17 85-18 0-65-11-111-34-138-23-26-56-40-100-42-27-1-49 3-65 12-17 9-33 28-50 55l-31-10c9-36 19-62 31-79 19-26 44-46 75-59 30-14 63-20 97-19 20 1 45 4 72 8-1-26-1-48 0-65 3-65 23-127 62-185 28-41 73-84 136-128-61 17-103 25-124 24-19-1-68-10-146-27-31-7-52-11-62-11-19-1-37 6-53 22-16 15-29 44-39 86l-41-2c10-49 24-87 41-113 25-39 57-68 94-88 36-20 73-29 110-27 21 1 59 10 113 28s97 28 129 29c65 3 139-14 221-52l16 37c-112 38-190 88-235 149-29 41-45 109-50 204l-16 380c-3 68-13 120-28 156-15 37-48 84-98 141 68-35 120-70 157-107 36-37 60-72 71-105s19-91 22-173l12-277c4-87 17-151 38-192 22-41 58-76 109-106 50-30 138-62 265-96zm-251 535l-1 37c70 31 135 48 196 50 36 2 68 0 96-6s60-17 98-34c-8-40-25-76-49-107s-63-64-118-98l-222 158zm-12 284c68-25 132-36 192-33 34 1 64 6 92 13 29 7 64 19 105 37l10-212c-42 15-76 25-105 30-27 5-58 7-93 5-62-3-126-18-192-47l-9 207zm1256-341l10 612c-81 35-140 63-177 85-27 16-54 36-79 60-80-47-145-80-197-97-40-14-84-21-134-21l-8-17c20-18 33-34 38-48 7-19 10-50 10-94l-8-449c100-35 186-83 256-145 78 50 174 88 289 114zm-369 540l212 83-9-520c-66-30-113-49-141-58-19-7-43-13-71-17l9 512zm997-692l119 115 75-81 24 20c-36 37-57 65-64 84-10 24-13 58-11 100l22 390c2 36 9 62 21 79 8 11 16 17 25 16 8 0 25-12 52-35l21 24-167 154c-47-32-77-60-92-86-14-26-23-67-26-126l-25-447-77-72-132 119 26 454 65 56-140 124-151-108 59-62-24-417c-3-59-11-99-24-119-9-14-19-20-29-20-11 1-27 13-47 35l-21-24 165-153c50 33 82 59 95 79s20 49 22 85l2 30 237-214zm907 31l61 609c-78 41-135 74-169 99-27 18-51 41-74 66-84-40-152-67-205-81-41-10-85-13-135-9l-9-16c18-20 29-37 33-51 6-20 7-51 2-95l-44-447c97-43 178-98 243-165 82 43 181 73 297 90zm-323 568l218 66-51-518c-69-24-117-39-146-46-20-5-44-9-72-11l51 509zm880-775l142 130-106 126-119-114-70 84 66 471 102 53 73-76 24 22-183 194c-51-33-92-56-125-69s-68-22-106-27l-2-16c22-21 35-40 40-58s4-51-3-99l-46-332c-6-42-15-69-26-82-11-12-22-18-33-16-12 2-27 15-45 42l-22-23 148-169c50 29 86 55 106 79 13 14 22 36 26 65l159-185z"/>
</svg>