<?xml version='1.0' encoding='utf-8'?>
<svg xmlns="http://www.w3.org/2000/svg" width="210mm" height="228.26mm" clip-rule="evenodd" fill-rule="evenodd" image-rendering="optimizeQuality" shape-rendering="geometricPrecision" text-rendering="geometricPrecision" version="1.1" viewBox="0 0 21000 22826">
 <defs>
  <style type="text/css">
    .fil2 {fill:#EABC07}
    .fil5 {fill:#0C6436}
    .fil0 {fill:#C89A00}
    .fil4 {fill:#EABC07}
    .fil6 {fill:#EABC07;fill-rule:nonzero}
    .fil7 {fill:#0C6436;fill-rule:nonzero}
    .fil1 {fill:url(#c)}
    .fil3 {fill:url(#d)}
  </style>
  <linearGradient id="c" x1="1745.2" x2="19289" y1="9695.9" y2="9695.9" gradientUnits="userSpaceOnUse">
   <stop stop-color="#266736" offset="0"/>
   <stop stop-color="#2F6736" offset=".05098"/>
   <stop stop-color="#5C9A33" offset=".1098"/>
   <stop stop-color="#2CD136" offset=".16863"/>
   <stop stop-color="#fff" offset=".23922"/>
   <stop stop-color="#36CE45" offset=".45882"/>
   <stop stop-color="#5F9A2D" offset=".63137"/>
   <stop stop-color="#0C6436" offset=".8"/>
   <stop stop-color="#232D30" offset="1"/>
  </linearGradient>
  <radialGradient id="d">
   <stop stop-color="#662D29" offset="0"/>
   <stop stop-color="#CF9A30" offset=".47843"/>
   <stop stop-color="#fff" offset=".76078"/>
   <stop stop-color="#CC9E20" offset=".87843"/>
   <stop stop-color="#623620" offset="1"/>
  </radialGradient>
 </defs>
   <path class="fil0" d="m18376 1654c-5503-2425-10729-1974-15756 0 0 7443-1066 15286 7878 18459 8983-3358 7878-10875 7878-18459z"/>
   <path class="fil1" d="m18208 1852c-5222-2376-10358-2016-15420 0 0 7283-1043 14959 7710 18064 8791-3287 7710-10643 7710-18064z"/>
    <path class="fil2" d="m8295 6401c-43-194-118-352-224-474-59-68-163-149-312-246-148-96-252-177-311-245-99-113-157-253-177-420 45 66 90 125 134 176 67 78 187 169 360 275s293 198 360 274c82 95 140 202 173 323 32 121 32 234-3 337z"/>
    <path class="fil2" d="m12903 6401c44-194 118-352 224-474 59-68 163-149 312-246 149-96 252-177 311-245 99-113 157-253 177-420-44 66-89 125-134 176-67 78-187 169-360 275s-293 198-360 274c-82 95-140 202-172 323-33 121-33 234 2 337z"/>
    <path class="fil2" d="m14096 10682c135 147 279 247 431 299 85 29 216 48 393 57s307 27 392 57c142 48 263 140 363 275-71-35-140-64-204-86-97-33-246-52-449-58-203-5-352-24-449-57-118-41-222-105-310-193-89-89-145-187-167-294z"/>
    <path class="fil2" d="m6904 10682c-135 147-279 247-431 299-85 29-216 48-393 57s-307 27-392 57c-142 48-263 140-363 275 71-35 140-64 204-86 97-33 246-52 449-58 203-5 352-24 449-57 118-41 222-105 310-193 89-89 145-187 167-294z"/>
    <path class="fil2" d="m10438 13394c108 168 167 332 178 494 6 89-10 220-47 394-37 173-53 304-47 393 10 150 68 291 173 422-16-78-26-152-31-219-7-102 13-252 60-449 48-197 68-347 61-449-9-124-44-241-106-349-63-109-143-189-241-237z"/>
    <path class="fil3" d="m10535 12335c-148 1082-557 1623-1231 1623-390 0-681-175-872-526l-96-176c-129-238-341-394-634-469l-201-49c-589-144-885-471-885-985 0-559 422-1015 1266-1364-319 49-574 75-767 75-351 0-644-99-880-296-233-197-351-443-351-737 0-235 98-462 293-678l150-172c176-193 263-375 263-546 0-38-6-128-19-272l-19-163v-120c0-691 340-1038 1019-1038 424 0 878 272 1360 818-268-452-400-857-400-1216 0-279 90-514 272-705s406-285 674-285c150 0 294 30 426 88l157 75c218 96 381 146 488 146 88 0 218-33 390-99l182-75c203-81 372-122 507-122 276 0 512 107 707 319 197 212 295 467 295 762 0 332-145 709-434 1125 486-555 940-831 1362-831 280 0 511 96 691 289 180 191 270 439 270 745 0 62-4 118-13 169l-25 150c-9 62-13 129-13 195 0 216 92 428 276 632l118 139c208 234 313 465 313 696 0 304-110 559-330 765-219 203-493 306-818 306-210 0-486-28-829-84 829 351 1244 801 1244 1347 0 489-259 795-777 921l-182 49c-351 84-598 247-739 489l-84 145c-224 375-529 563-908 563-732 0-1137-541-1216-1623z"/>
    <path class="fil3" d="m10533 11623c-110 809-416 1214-921 1214-291 0-509-132-652-394l-72-132c-96-177-255-294-474-350l-151-37c-440-108-661-353-661-737 0-418 315-760 947-1021-239 37-430 56-574 56-263 0-482-73-658-221-175-147-263-331-263-551 0-176 74-346 219-508l113-128c131-144 197-280 197-408 0-29-5-96-15-204l-14-121v-90c0-518 254-777 762-777 317 0 657 203 1018 612-201-338-300-641-300-910 0-208 67-385 203-527 137-143 305-213 505-213 112 0 220 22 319 65l117 57c163 72 285 108 365 108 66 0 163-24 292-73l136-56c152-61 279-92 379-92 207 0 383 80 529 239 147 159 221 349 221 570 0 249-109 531-325 841 364-414 703-621 1019-621 210 0 383 72 517 216 135 143 202 329 202 558 0 46-3 88-9 126l-20 112c-6 47-9 96-9 146 0 162 69 321 206 473l88 104c156 174 234 347 234 520 0 228-81 419-246 572-164 153-369 229-612 229-157 0-364-20-620-62 620 263 930 599 930 1008 0 365-193 594-581 689l-136 36c-263 63-447 185-553 366l-62 109c-169 280-396 421-680 421-548 0-850-405-910-1214z"/>
    <path class="fil3" d="m10532 10894c-73 530-273 796-604 796-191 0-334-87-427-259l-48-86c-63-116-167-193-311-230l-98-24c-289-70-434-231-434-483 0-274 207-498 621-669-157 24-282 37-376 37-173 0-316-49-432-145-114-97-172-218-172-361 0-116 48-227 144-333l73-84c86-95 129-184 129-268 0-19-3-63-9-134l-9-79v-59c0-339 166-509 499-509 208 0 431 133 667 401-131-222-196-420-196-597 0-136 44-252 133-345 89-94 200-140 331-140 74 0 144 15 209 43l77 37c107 47 187 71 239 71 43 0 107-15 191-48l89-37c100-40 183-60 249-60 136 0 251 53 347 157 97 104 145 229 145 374 0 162-72 347-213 551 238-272 461-407 668-407 137 0 251 47 339 141s132 216 132 366c0 30-2 58-6 83l-13 73c-4 31-6 63-6 96 0 106 45 210 135 310l58 68c102 114 153 228 153 341 0 149-53 274-161 375-107 100-242 150-401 150-103 0-239-13-407-41 407 173 610 393 610 661 0 239-127 389-381 451l-89 25c-172 40-293 120-363 239l-40 71c-111 184-260 277-446 277-359 0-557-266-596-796z"/>
    <path class="fil3" d="m10531 10437c-49 355-183 533-405 533-128 0-224-57-287-173l-31-58c-43-78-112-129-209-154l-66-16c-194-47-291-155-291-324 0-184 139-334 416-449-105 17-189 25-252 25-115 0-212-32-289-97s-116-146-116-242c0-78 33-152 97-224l49-56c58-63 87-123 87-179 0-13-3-43-7-90l-6-53v-40c0-227 112-341 335-341 140 0 289 89 447 269-88-149-131-282-131-400 0-92 29-169 89-232s134-94 222-94c49 0 96 10 140 29l51 25c72 31 126 48 161 48 29 0 72-11 128-33l60-24c67-27 123-41 167-41 91 0 168 36 232 105 65 70 97 154 97 251 0 109-47 233-142 370 159-183 309-273 447-273 93 0 169 31 228 95 59 62 89 144 89 245 0 20-2 38-5 55l-8 50c-3 20-4 42-4 64 0 71 30 141 91 207l38 46c69 77 103 153 103 229 0 100-36 184-108 252-72 66-162 100-269 100-69 0-160-9-273-27 273 115 409 263 409 443 0 160-85 261-255 303l-60 16c-116 27-197 81-243 160l-28 48c-74 123-174 185-298 185-241 0-374-178-400-533z"/>
    <path class="fil4" d="m10529 9833c-17 125-64 187-142 187-45 0-78-20-100-61l-11-20c-15-27-40-45-74-54l-23-6c-68-16-102-54-102-113 0-65 49-118 146-158-37 6-66 9-88 9-41 0-75-12-102-34-27-23-40-51-40-85 0-28 11-54 34-79l17-19c20-23 30-44 30-63 0-5-1-15-2-32l-2-19v-13c0-80 39-120 117-120 49 0 102 31 157 94-31-52-46-99-46-140 0-32 10-60 31-82s47-32 78-32c18 0 34 3 49 10l19 8c25 12 44 17 56 17 10 0 25-4 45-11l21-9c23-9 43-14 58-14 32 0 59 12 82 37 23 24 34 54 34 88 0 38-17 82-50 130 56-64 108-96 157-96 32 0 59 11 80 33s31 51 31 86c0 7-1 14-2 20l-2 17c-1 7-2 15-2 22 0 25 11 50 32 73l14 16c23 27 36 54 36 81 0 35-13 64-38 88-26 23-57 35-95 35-24 0-56-3-95-9 95 40 143 92 143 155 0 56-30 92-90 106l-21 6c-40 10-69 28-85 56l-10 17c-25 43-61 65-104 65-85 0-131-62-141-187z"/>
   <path class="fil5" d="m3498 2587c4892-2156 9539-1755 14007 0 0 6616 948 13589-7003 16410-7986-2986-7004-9668-7004-16410zm150 176c4642-2112 9208-1792 13707 0 0 6474 928 13298-6853 16058-7815-2921-6854-9461-6854-16058z"/>
    <path class="fil6" d="m0 22826l1574-1920c278-340-1574-602-1574-1054 7e3 -2973 14000 1983 21000-991l-1339 2095c-179 280 1242 303 1327 775-7e3 2974-13988-1879-20988 1095z"/>
    <path class="fil7" d="m196 22656l1544-1766c274-313-1544-554-1544-970 6869-2735 13739 1824 20608-912l-1314 1928c-269 394 1314 296 1314 773-6869 2736-13739-1789-20608 947z"/>
    <path class="fil6" d="m2859 21299l156-109c85 64 187 90 309 79 85-9 148-40 189-95 40-54 69-145 86-272 1-9 3-22 5-38-112 43-231 71-357 83-166 16-302-19-407-106-105-86-166-212-182-377-24-257 44-487 206-688 163-201 370-314 624-338 144-14 286-10 427 14l-53 264-59 6c0-23 0-43-2-60-5-58-41-101-106-131-66-29-149-39-251-29-172 17-316 118-431 306-115 187-161 395-139 625 13 140 66 247 158 320s210 102 355 88c89-8 164-25 224-52l50-492-172 17c-113 11-213 57-299 139l6-68c106-123 216-190 333-201l346-34-46 308-24 233c-22 213-81 374-178 482-97 109-238 172-424 189-139 14-254-8-344-63zm1411-390l66-301 87-478c8-48 13-90 12-125-1-56-21-83-60-82-68 1-166 76-291 225l16-87c147-165 276-248 387-250 93-2 141 51 143 158 1 48-4 101-15 159l-43 235h13c75-163 164-297 268-402s200-158 287-160c46 0 87 9 123 28l-127 178c-39-24-72-36-98-36-127 2-293 191-497 566l-65 357-206 15zm1342 30c-86-4-155-40-209-109s-78-153-74-252c9-187 87-356 236-508 148-152 306-224 473-217 90 4 163 40 218 107 56 68 82 152 77 252-9 194-87 365-236 515-148 149-310 220-485 212zm114-79c96 5 184-53 262-173 79-121 122-262 129-426 10-214-51-325-182-331-93-4-179 56-259 180s-124 266-131 426c-9 210 51 319 181 324zm8102-77l-223-10 70-68 171 7 66-275 204-38-75 322 363 16-84 82c-82-12-154-20-218-23l-78-4-165 660c-17 68-26 116-27 144-2 51 19 78 65 80 70 3 167-45 293-143l-22 89c-131 119-255 177-371 171-110-5-163-68-157-190 2-44 11-101 29-173l159-647zm-6975 235c10-64 18-127 25-190 31-289 37-492 18-607-20-116-69-178-149-186-76-8-173 61-290 207l39-128c132-149 252-218 360-206 199 21 270 292 214 813l-14 98c253-289 409-558 468-807l91-11c57 292 71 578 41 858 107-112 202-231 282-359s124-226 132-296c4-41-5-89-28-146l218 12c8 31 10 59 8 84-6 51-44 126-114 223-71 97-184 230-339 398l-59 64-207 229-101 14 16-117c28-262 34-478 20-649-191 305-366 535-524 689l-107 13zm2200-68l-28 88c-161 134-297 193-410 179-92-12-133-66-120-164 4-32 18-85 43-159l111-327c30-93 47-155 51-187 7-54-10-83-53-89-29-4-83 1-161 14l19-58 494-94-112 299-155 465c-24 72-38 119-40 139-6 42 10 66 48 70 63 8 168-50 313-176zm-231-992l82-123 293-144-105 168-270 99zm1793 1480c-72-49-101-131-86-248 25-190 126-365 303-523 172-154 370-217 593-188 43 5 132 21 268 46l-106 277-74 218c-38 116-65 200-81 255-65 225-121 379-168 463s-121 163-223 236c-149 107-311 149-485 127-113-15-202-49-268-102-65-53-93-115-84-186 18-142 155-267 411-375zm829-802c-73-48-147-77-224-87-86-11-163 18-232 88-55 54-109 138-162 251-54 114-86 212-97 296-11 91 12 140 69 147 127 17 319-145 576-485l70-210zm-126 374l-15-2c-88 143-185 254-293 334-106 80-214 121-321 124-185 95-284 192-297 292-8 65 16 124 74 177 57 54 131 86 220 98 116 15 213-19 291-100 79-81 144-217 198-408l143-515zm-2156 265l110-288 158-463c24-72 38-120 41-142 5-40-11-63-49-68-63-8-168 50-315 173l29-86c161-133 298-192 411-177 93 12 133 67 121 163-5 33-19 87-44 161l-80 231 15 2c102-153 210-273 324-360 115-87 216-124 303-112 105 13 150 79 135 196-5 38-17 83-35 136l-156 458c-24 73-38 120-41 142-6 40 11 63 49 68 64 9 170-49 317-173l-30 86c-161 133-299 192-412 177-94-12-134-67-121-164 4-32 19-85 46-160l159-460c13-35 21-65 24-91 7-52-9-80-48-85-123-17-319 156-589 516l-117 335-205-15zm3143 325l148-125c111 106 229 165 357 177 89 8 163-11 224-56s95-107 102-186c7-77-38-168-135-271l-126-134c-94-99-151-167-172-205-21-39-29-89-23-150 11-121 71-220 181-299 111-78 237-111 378-98 90 8 193 45 309 110l-71 240-61-5c4-20 5-34 6-42 6-62-14-114-60-157-46-42-109-67-190-74-83-7-156 11-217 55-62 44-96 103-102 176-5 50 5 96 31 139 25 44 79 108 164 194l105 110c118 121 172 228 164 324-12 124-81 226-209 305-128 78-275 110-441 95-127-12-247-53-362-123zm2219 208l76-299 103-475c10-47 16-89 16-124 1-56-18-84-57-85-69-1-168 71-298 216l19-86c152-160 284-239 394-238 94 2 140 56 138 164 0 47-7 100-20 157l-50 234 12 1c80-161 174-292 281-394 107-101 205-151 293-149 45 0 86 11 121 32l-132 173c-38-26-71-39-97-39-127-2-299 181-516 549l-77 354-206 9zm1344-8c-85 5-157-25-218-88-60-63-93-144-98-244-10-186 51-362 184-528 132-167 282-254 449-263 90-5 166 23 228 85 62 61 96 142 101 243 11 193-50 372-183 535-133 164-287 250-463 260zm107-90c96-5 177-72 243-199s95-273 86-436c-12-214-83-318-214-311-93 5-172 73-240 205-67 131-96 277-88 436 12 210 83 312 213 305zm822 8l29-307 27-489c5-76 5-125 2-148-6-40-27-57-65-51-64 9-149 92-258 251l5-91c119-171 235-265 348-281 94-13 147 28 161 125 4 32 4 88 0 166l-14 245 15-3c57-175 129-320 216-434 86-114 173-177 261-189 105-15 166 36 182 153 6 37 7 84 3 140l-27 483c-4 77-5 126-1 148 5 40 27 58 65 52 65-9 151-93 259-252l-6 92c-119 171-236 265-349 281-93 13-147-29-160-126-5-32-5-87 0-167l30-485c3-38 3-69-1-94-7-52-31-75-69-70-123 18-266 236-429 656l-22 354-202 41zm1436-271c-85-20-141-86-170-201-45-186-14-385 95-596 105-206 267-336 485-390 42-10 131-28 267-53l1 297 9 230c6 121 11 210 16 267 21 233 24 397 10 492s-55 196-123 301c-101 153-236 250-407 292-111 28-206 28-287 2-80-26-128-74-145-144-34-138 49-304 249-497zm484-1047c-85-18-164-19-239 0-84 20-146 75-186 165-31 70-52 168-61 293s-3 229 17 311c22 89 61 126 117 113 124-31 245-251 362-660l-10-222zm18 394l-15 4c-31 165-82 304-153 417s-156 190-255 231c-139 155-196 282-172 380 15 63 59 109 132 138 73 30 153 34 241 12 113-28 191-93 235-198 44-104 57-254 38-451l-51-533z"/>
</svg>