<?xml version='1.0' encoding='utf-8'?>
<svg xmlns="http://www.w3.org/2000/svg" width="210mm" height="232.69mm" clip-rule="evenodd" fill-rule="evenodd" image-rendering="optimizeQuality" shape-rendering="geometricPrecision" text-rendering="geometricPrecision" version="1.1" viewBox="0 0 20982 23249">
 <defs>
  <style type="text/css">
    .fil0 {fill:#434242}
    .fil3 {fill:#2B2A29;fill-rule:nonzero}
    .fil4 {fill:#5B5B5B;fill-rule:nonzero}
    .fil5 {fill:#CF2D03;fill-rule:nonzero}
    .fil1 {fill:url(#c)}
    .fil2 {fill:url(#d)}
  </style>
  <linearGradient id="c" x1="2797" x2="18203" y1="10187" y2="10187" gradientUnits="userSpaceOnUse">
   <stop stop-color="#2B2A29" offset="0"/>
   <stop stop-color="#434242" offset=".12157"/>
   <stop stop-color="#727271" offset=".18039"/>
   <stop stop-color="#C5C6C6" offset=".2902"/>
   <stop stop-color="#727271" offset=".54902"/>
   <stop stop-color="#5B5B5B" offset=".81176"/>
   <stop stop-color="#434242" offset=".92157"/>
   <stop stop-color="#2B2A29" offset="1"/>
  </linearGradient>
  <linearGradient id="d" x1="3599.8" x2="16730" y1="10983" y2="10983" gradientUnits="userSpaceOnUse">
   <stop stop-color="#6F0000" offset="0"/>
   <stop stop-color="#C83E22" offset=".078431"/>
   <stop stop-color="#FF9760" offset=".18039"/>
   <stop stop-color="#fff" offset=".2902"/>
   <stop stop-color="#FF6728" offset=".54902"/>
   <stop stop-color="#CC2900" offset=".81176"/>
   <stop stop-color="#9F1D2C" offset=".92157"/>
   <stop stop-color="#6D091D" offset="1"/>
  </linearGradient>
 </defs>
   <path class="fil0" d="m2629 1880l7871-1880 7871 1880v8322c0 4386-3960 8734-7871 10121-3457-1292-7871-5334-7871-10121v-8322z"/>
   <path class="fil1" d="m2797 2078l7703-1830 7703 1830v8143c0 4293-3876 8547-7703 9905-3383-1265-7703-5220-7703-9905v-8143z"/>
   <path class="fil0" d="m3327 2645l7220-1725 7220 1725v7633c0 4023-3633 8011-7220 9283-3171-1185-7220-4892-7220-9283v-7633zm155 181l7065-1678 7065 1678v7469c0 3938-3554 7840-7065 9085-3103-1160-7065-4788-7065-9085v-7469z"/>
   <path class="fil0" d="m5211 9546c79 33 89 71 29 115-152 28-294 5-434-28 143-17 285-37 405-87zm5418-1684c212 57 355 230 351 409l651-122c881-144 1716-74 2570 83 802 148 1759 545 2465 932 163 89 621 336 722 510-308-84-686-297-1008-424-388-145-900-291-1300-106-314 144-370 517-248 775 78 176 95 307 198 483 60 103 95 159 114 235-319-14-496-123-863-59-214 37-432 165-550 351-288 454-167 1608-220 1742-39-32-283-521-359-634-138-204-268-369-426-528-582-582-1237-953-2071-704-1472 536-1288 2002-3475 2037-601 5-981 560-2009 681-30 3-63-40-86-48-40-14-70-53-79-92 14-6 29-11 46-15 0-2 46-119 52-117 24 37 56 73 93 107 11 0 23-2 36-4 21-49 36-97 41-143 41 34 75 71 98 113 11-3 25-5 39-8 20-48 35-95 39-140 41 33 75 71 98 112 12-2 23-5 34-7 21-50 36-99 41-145 41 34 75 71 99 113 6-2 12-4 17-6 97-133-71-336-153-356-2-1-4-1-7-1-5 37-17 74-34 111-21-33-51-65-85-95-13 2-28 6-43 9-4 42-17 86-36 129-22-35-54-68-90-100-11 3-22 6-33 9-3 44-16 89-36 134-23-36-55-70-92-102l-25 7c-16 45-26 89-28 131-40-29-74-62-99-99l-23 6c-16 47-27 93-29 136-101-73-410-29-418-267-3-89 41-391 85-469 30 247 188 372 444 277 30-12 50-63 78-75 26-12 61 15 84 6 25-10 43-51 67-63 21-9 54 19 77 9 20-9 30-56 50-66 69-33 96-70 131-129 11-18 11-27 24-48 105-168 59-82 197-154 54-27 81-100 95-193 70-469 124-635 490-947 6 16-441 703-252 918 57-41 92-486 254-613 12 134-172 385 68 551 1527 701 2775-379 2755-1388-818 772-2095 732-3048 225-523-298-1129-6-2080-416-27-12-35-66-51-84-27-32-34-81-22-119 15 1 31 5 48 9 0-1 98-79 103-75 2 44 12 91 27 139 9 6 21 11 33 16 42-33 80-67 106-104 19 50 30 99 29 146 11 4 24 8 39 13 41-32 77-65 103-102 19 50 30 99 29 146 11 4 22 8 33 11 43-33 80-67 108-105 19 50 29 99 29 147 7 2 13 3 18 4 150-66 106-326 46-385-2-2-4-3-6-5-23 30-52 56-85 80-2-40-12-82-26-125-13-5-27-9-42-14-25 35-57 66-96 94-2-42-12-86-28-131-10-3-21-6-33-10-25 37-58 69-98 99-2-43-13-88-29-134l-25-8c-36 32-67 65-90 100-20-45-33-90-36-135l-23-6c-37 33-70 67-93 103-51-114-341-231-228-440 42-79 231-318 308-363-98 228-23 415 246 461 32 5 74-30 105-26 28 3 45 44 69 48 27 4 64-24 90-21 23 2 37 43 63 46 21 2 54-34 76-32 76 6 118-13 177-47 19-10 24-18 46-30 174-93 91-41 247-34 60 3 120-46 179-120 295-371 424-488 897-575-3 17-733 389-677 669 70-7 323-375 527-404-57 122-342 247-217 511 915 1291 2407 1090 2984 324-534-243-996-669-1307-1167-305-520-976-570-1594-1400-17-25 3-75-2-99-8-41 11-87 41-114 11 9 24 20 36 32 1 0 125-20 127-13-20 39-35 85-46 134 5 9 13 19 21 29 53-6 102-17 144-36-9 52-24 100-48 141 8 9 17 19 26 30 52-7 100-18 141-36-8 52-24 100-48 141 8 9 15 17 23 26 53-7 103-18 146-38-9 53-24 101-49 142 6 5 10 10 14 13 164 18 256-230 233-311-1-2-2-4-3-7-35 14-73 23-114 27 19-35 31-77 41-121-10-11-20-22-30-34-39 18-83 29-130 34 19-37 32-80 42-127-8-9-16-17-24-25-40 19-85 30-135 36 20-38 33-83 43-131l-19-18c-47 9-90 22-127 41 5-49 16-95 36-135l-17-17c-49 10-94 23-132 43 13-124-180-370 22-496 76-47 360-159 449-160-199 149-228 348-18 522 25 21 79 12 104 31 23 16 17 60 36 76 22 17 67 11 89 26 18 14 10 56 31 71 17 13 64-2 82 11 63 43 108 48 176 48 22 0 30-4 55-3 198 7 100 10 231 94 51 33 127 20 215-15 441-173 612-210 1065-49-11 13-829-30-921 241 64 29 467-164 658-86-110 77-419 43-444 334 92 972 895 2198 1986 1678 372-178 1324-1017 490-1240-119-32-237-21-333 22 98-127 288-187 480-135zm-4819 4398c85-11 112 18 82 85-118 101-252 152-390 194 116-87 228-175 308-279zm-1265 1007c85 22 162 24 232 7 38-10 91-35 159-75 67-40 120-65 158-75 65-16 132-11 202 16-35 3-68 9-97 16-44 11-104 40-180 88s-136 77-180 88c-54 14-107 15-162 4-54-12-98-34-132-69zm2854-6061c51 68 41 106-32 114-147-51-258-142-363-241 133 57 265 111 395 127zm-1505-592c24 85 61 153 111 204 27 29 75 62 144 101 68 38 116 72 144 100 46 48 75 109 87 183-21-29-42-55-62-76-32-33-87-70-167-112-79-43-134-80-166-112-38-40-66-86-84-139-17-52-20-102-7-149zm-2282 3171c63 62 129 103 198 122 38 11 96 16 175 15 78-1 137 4 175 15 64 18 119 56 166 114-32-15-63-26-91-34-44-13-111-17-200-14-90 3-157-2-200-14-53-15-101-41-142-78-42-37-69-79-81-126z"/>
   <path class="fil2" d="m5278 9550c78 33 88 71 29 113-151 29-291 6-429-27 142-17 281-36 400-86zm5349-1663c210 56 351 228 347 404l643-120c869-142 1694-74 2537 82 792 146 1736 538 2434 920 160 88 613 332 712 504-304-83-676-294-995-419-382-144-888-287-1283-105-310 143-365 510-245 765 77 174 94 304 195 477 60 102 95 157 113 233-315-14-489-122-852-59-211 37-426 163-542 346-285 449-165 1588-218 1720-38-31-280-514-355-626-135-201-264-364-420-520-575-575-1221-941-2045-696-1454 529-1271 1977-3431 2012-594 4-968 553-1983 672-30 2-63-39-85-47-40-14-69-53-78-91 13-6 29-11 45-15 1-2 45-117 52-116 23 37 55 72 92 106 10 0 22-2 35-4 20-48 35-96 40-141 41 33 74 70 97 111 11-2 24-5 39-8 19-47 34-94 38-138 41 33 74 70 97 111 11-3 22-5 33-7 21-49 36-97 41-143 41 33 74 70 97 111 7-2 13-4 18-5 96-132-70-332-151-352-2-1-5-1-8-2-5 37-16 74-33 111-21-33-50-65-84-95-13 3-28 6-43 9-4 43-16 85-35 128-22-35-53-67-89-98-10 2-21 5-32 8-4 43-16 88-36 132-23-35-54-68-91-100l-25 6c-15 45-25 89-27 130-40-29-73-61-98-97l-23 5c-16 47-27 92-29 135-99-73-405-30-412-264-3-88 41-386 84-463 29 243 186 367 438 273 30-11 49-62 77-74 26-11 60 15 83 6 25-9 43-51 67-62 20-9 53 19 76 9 19-9 29-56 49-65 68-33 95-69 129-127 10-19 11-28 24-49 103-165 58-80 195-151 53-27 79-99 93-191 70-463 122-627 484-935 6 16-435 695-249 907 56-41 91-480 251-606 11 132-170 380 67 545 1507 691 2740-375 2720-1371-807 762-2068 723-3009 222-517-294-1115-6-2054-411-27-12-34-64-50-83-27-31-34-79-22-117 14 1 30 5 47 9 1-1 97-78 102-74 2 44 12 90 27 137 9 6 20 11 32 15 42-32 79-65 105-102 19 49 29 98 29 145 11 3 24 7 38 12 40-31 76-64 102-101 19 50 29 98 29 145 10 4 21 7 32 11 42-33 79-67 106-104 19 49 29 98 29 145 7 2 13 3 18 4 149-66 105-322 45-380-1-2-3-3-6-5-22 29-51 55-84 79-1-39-11-81-25-124-13-4-27-9-42-13-24 34-56 65-94 93-2-42-12-85-28-130-10-3-21-6-32-9-25 36-58 68-97 96-2-42-13-86-29-132l-25-7c-35 31-66 64-88 99-20-45-33-90-36-133l-23-7c-37 33-69 66-92 102-50-113-336-228-225-435 41-77 228-314 304-358-96 225-22 410 243 455 32 5 74-29 104-26 28 3 44 44 69 48 26 4 62-23 88-21 23 2 37 43 62 45 21 3 53-33 75-31 75 6 116-13 175-46 18-11 23-18 45-30 173-92 90-41 244-33 60 3 119-46 177-119 291-366 419-482 886-568-3 17-724 384-669 661 69-7 319-371 521-399-57 120-338 244-215 505 904 1274 2376 1076 2946 320-526-241-983-662-1290-1153-301-513-963-563-1574-1382-17-25 3-74-2-98-7-41 11-85 41-112 11 8 23 19 35 31 1 0 124-19 125-13-20 39-34 84-45 133 5 8 13 18 21 29 52-7 101-18 142-37-8 53-24 100-47 140 7 9 16 19 26 30 51-7 98-18 139-36-9 52-24 99-48 139 8 9 15 17 23 26 53-7 102-18 144-37-8 52-24 99-48 140 5 5 10 9 14 13 161 17 252-227 229-307 0-2-1-5-3-7-34 13-71 22-112 26 18-35 31-76 40-120-9-10-19-21-29-32-39 17-82 28-128 33 19-37 31-80 41-126-8-8-16-16-24-25-39 19-84 31-132 36 19-38 32-81 41-129l-18-18c-46 9-89 22-126 41 5-49 16-94 36-134l-17-16c-48 9-93 22-131 42 13-123-177-366 23-490 74-46 355-157 442-158-195 147-224 344-17 516 25 20 78 12 103 30 22 16 16 59 36 75 21 17 65 11 87 26 18 13 10 55 31 70 17 13 62-2 80 10 63 43 107 48 175 48 21 1 29-3 54-3 195 7 98 10 228 93 50 33 126 20 212-14 436-171 604-208 1052-49-11 13-819-30-910 238 64 29 461-162 650-85-109 76-414 42-438 329 90 960 883 2171 1960 1657 368-176 1308-1003 484-1224-117-32-234-21-329 22 97-126 285-184 474-134zm-4758 4343c84-11 111 17 82 84-117 100-249 150-385 191 114-86 225-172 303-275zm-1249 994c85 22 161 24 229 7 38-10 90-35 157-74 67-40 119-64 157-74 64-16 130-11 199 16-35 3-67 8-96 16-43 11-102 39-177 86-76 47-135 76-178 87-53 14-106 15-160 4s-97-34-131-68zm2818-5984c51 67 40 105-32 113-144-51-254-141-358-238 131 56 262 109 390 125zm-1485-584c23 84 59 151 109 201 27 28 74 61 142 99 67 38 115 71 142 99 46 47 74 107 86 181-20-29-41-54-61-75-32-33-86-69-164-111-79-42-134-79-165-111-38-39-65-84-83-136-17-52-19-101-6-147zm-2253 3131c62 61 127 100 195 120 37 10 95 15 173 14 77 0 134 4 172 15 63 18 118 56 165 113-32-15-63-26-91-34-43-12-109-17-197-14-89 3-155-2-198-14-52-14-99-40-140-76-41-37-67-78-79-124z"/>
   <path class="fil3" d="m0 23249l1572-1918c279-340-1572-602-1572-1053 6994-2971 13988 1981 20982-991l-1338 2094c-179 279 1241 302 1326 774-6994 2971-13976-1877-20970 1094z"/>
   <path class="fil4" d="m196 23079l1543-1765c273-312-1543-553-1543-968 6863-2734 13726 1822 20590-911l-1313 1925c-268 394 1313 297 1313 773-6864 2733-13727-1787-20590 946z"/>
   <path class="fil5" d="m5050 19824l48-3c1 66-6 116-22 151-21 46-54 84-99 114-45 29-96 45-152 48-60 3-133-9-217-36l16 294 347-19-54 170-284 16 29 530c5 105 2 181-9 230-12 49-38 96-78 143-40 46-91 85-153 119-89 47-161 83-216 104l-458 181c-150-47-237-69-260-68-21 1-40 9-55 25-16 15-26 40-31 73l-47-8c-3-52 1-92 12-123 18-49 44-87 79-113 35-27 73-41 115-44 59-3 136 13 231 48 67 25 107 40 122 43 15 4 29 5 42 5 23-2 44-12 62-32 19-20 29-50 33-89 3-40 2-121-5-244l-41-747-69 3c-115 6-200 24-254 53-54 30-100 77-137 142l-43-15c25-100 60-173 106-219 78-77 189-120 334-128 12 0 30-1 54-2l-13-237 77-1c83-4 164-26 243-64 80-38 145-82 198-131 34-34 70-83 108-145 126 71 228 104 306 100 33-2 62-12 85-32 22-19 39-50 50-92zm-668 332c-49 28-105 51-168 69l49 898c2 31 2 90 1 176-1 51-5 89-11 116-11 39-27 77-50 113-22 35-60 83-115 141 95-41 169-89 224-145 55-55 90-114 106-175 16-62 21-153 14-274l-50-919zm1259-221l141 2-157 238-48-1 64-239zm-95 380l198 167-91 84-9 609c-1 64 3 106 14 126 10 19 21 29 32 29 8 0 16-1 23-5 9-6 28-21 58-46l26 35-242 192c-59-43-97-84-113-122-17-37-24-103-23-197l10-624-83-87 200-161zm9954 1068l-13 837c-113 43-195 79-246 107-38 22-75 48-111 79-106-68-195-115-265-142-53-20-113-32-181-34l-11-23c28-24 46-45 54-64 11-26 17-68 18-128l9-614c139-43 257-105 356-186 104 71 234 127 390 168zm-528 721l286 123 11-710c-89-44-153-72-191-86-26-10-58-19-95-26l-11 699zm-8341-1754l159 210-174 142-132-182-115 95-29 649 124 97 118-84 26 35-295 216c-60-57-110-99-150-125-41-25-86-46-136-62l1-23c35-21 57-44 68-67 12-23 19-68 22-134l20-458c3-57-2-96-14-115-11-20-25-30-40-31-17 0-40 14-71 45l-24-35 240-191c61 51 103 96 124 132 14 23 20 55 18 94l260-208zm797 54l289 389-524 314-14 203 250 121 182-107 25 36-379 226c-70-44-129-77-175-97-47-20-113-43-199-69l2-27c26-13 45-30 55-52 10-21 17-68 22-141l45-637c71-21 131-40 178-57 35-14 116-47 243-102zm-178 116l-16 7-35 506 307-185-256-328zm7374 270l-2 28c-60 26-104 60-131 103-27 42-44 109-50 199l-69 991 121 104 50-37 25 43-234 153c-64-63-111-106-143-127-32-22-75-42-129-62l1-23c22-11 39-26 52-44 13-19 22-41 28-66 2-9 7-54 13-134l56-796c4-67 5-115 1-141-3-27-12-53-26-78-15-26-40-54-76-87l18-21c67 23 126 66 175 129 61-55 114-91 161-109 47-19 100-27 159-25zm-917-150c75 29 129 65 165 109 49 62 70 130 62 203-6 60-34 120-84 179s-137 127-262 202c98 20 168 44 211 72 44 29 73 63 87 102s17 102 8 189l-41 382c-267 1-502 69-704 203-59-51-117-89-173-114-90-41-188-67-295-79-131-14-239 1-324 46-57 30-87 63-91 98-1 13 4 34 18 62 13 28 18 50 17 65-2 15-9 27-21 37s-25 14-38 13c-21-2-39-14-53-36-15-21-20-47-17-78 3-29 17-61 41-95 24-35 74-83 149-144 75-62 124-108 146-137 22-30 35-59 38-86 3-33-5-61-24-84-20-23-47-37-80-40-30-4-56 2-77 17s-37 41-48 80l-39-6c1-14 1-24 2-31 7-61 33-110 79-145s103-49 173-41c8 0 21 2 38 5 7-73 2-127-16-162-27-56-73-88-140-95-41-5-79 2-113 20-19 9-38 30-59 63l-40-20c15-69 48-122 101-159 52-37 115-51 189-43 28 3 62 9 102 18 14-104 32-179 53-225 22-46 54-87 96-123 43-35 122-82 236-141-105 22-192 29-263 22-45-5-103-20-174-44-41-14-71-22-88-24-33-3-63 5-88 25-26 20-45 58-58 114l-43-5c9-67 28-122 55-165s66-76 115-99c50-22 101-31 152-25 39 4 102 22 189 54 87 31 158 50 214 56 41 5 81 4 120 0 39-5 91-18 156-38l16 51c-168 61-282 125-343 193-60 68-97 163-110 285l-49 456c-11 100-30 177-58 230-29 53-80 111-155 175 136-41 231-91 283-150 51-59 84-150 97-274l36-327c16-152 41-259 74-318 33-60 88-108 164-145 76-38 238-80 486-128zm-203 87c-84 28-141 53-171 76-30 22-53 49-67 83-15 33-26 90-35 173l-49 455c-9 81-22 142-42 181-19 40-52 77-98 112s-138 84-274 145c70-3 135-1 196 6 102 10 197 35 285 73l99-927 50 6-31 288c108-50 190-105 245-164 55-60 87-127 95-202 7-62-6-118-40-166-33-49-87-95-163-139zm-154 833c58 28 111 44 160 49 48 5 104 1 167-14 5-52-2-94-21-128-20-34-60-68-120-102-86 45-144 73-175 86l-11 109zm322 83c-64 16-120 21-168 16-50-5-104-22-160-51l-21 202c59-17 113-23 162-17 49 5 103 22 165 52l22-202zm-27 250c-65-32-122-50-169-55-49-6-102 1-158 20l-22 197c31 17 59 36 85 57 79-32 162-55 248-69l16-150zm-4372-1244l39 20c-48 58-79 102-94 134-15 31-26 75-33 132l-56 473c-10 78-10 128-1 149 8 21 21 32 36 34 8 1 17 0 26-4 6-3 23-14 51-33l22 37-261 176c-51-51-84-95-98-132-15-37-20-88-15-151l-368 226c-114-119-165-229-153-330 8-67 29-129 63-185 46-73 119-157 220-250l-100-300 20-30c28 5 50 9 64 10 87 11 168-13 243-72 50 37 106 69 168 95s110 42 144 46c15 2 27 1 36-4 9-4 24-18 47-41zm-305 176l-365-163 100 302 231 146 34-285zm-39 333l-254-160c-52 85-83 161-91 229-14 120 28 225 127 316l185-113 33-272zm1279-438l131 186 121-90 27 33c-58 41-94 73-108 96-19 30-32 74-40 132l-69 528c-7 50-4 87 8 113 8 16 18 26 29 27 10 2 37-9 79-33l21 37-262 164c-55-55-89-101-102-138-12-39-13-97-3-176l80-607-84-117-208 127-81 616 73 92-219 131-175-183 94-70 75-565c11-80 10-136-3-166-8-21-20-32-34-34s-38 10-71 35l-22-38 260-164c59 57 94 101 107 131 13 31 15 71 9 121l-6 40 373-228zm494-317l685 616c15-26 31-45 47-57 17-12 41-23 72-31l-5 45c-18 18-30 35-37 51-7 15-13 48-20 98l-99 746c-98 23-173 44-222 64s-104 48-163 86c-79-70-150-122-214-157s-133-61-210-79l3-21c30-19 50-40 61-62s21-70 30-143l77-582c105-14 180-36 226-65l-266-240 35-269zm507 757l-207-186c-23 14-45 26-68 35l-91 683 273 167 93-699zm5281 211l14 836c-111 47-191 86-241 116-38 22-74 50-108 82-109-64-199-108-270-133-54-18-115-28-182-28l-12-23c28-24 45-46 52-65 10-26 14-69 13-129l-11-614c137-47 254-113 350-198 107 68 238 120 395 156zm-504 738l290 114-12-711c-91-41-156-67-194-80-26-9-58-17-96-23l12 700zm564-1283l805 447c10-29 21-51 34-66 13-16 35-32 63-47l5 45c-14 22-22 41-25 58s-2 50 3 101l72 748c-91 45-159 82-202 113-44 31-90 70-140 120-92-50-174-85-244-105-69-19-143-29-222-29l-2-21c25-26 40-50 45-75 6-24 5-73-2-146l-56-584c99-38 167-75 205-114l-313-174-26-271zm664 625l-244-135c-18 18-38 35-58 49l66 686 303 101-67-701z"/>
</svg>