<?xml version='1.0' encoding='utf-8'?>
<svg xmlns="http://www.w3.org/2000/svg" width="210mm" height="227.84mm" clip-rule="evenodd" fill-rule="evenodd" image-rendering="optimizeQuality" shape-rendering="geometricPrecision" text-rendering="geometricPrecision" version="1.1" viewBox="0 0 20982 22764">
 <defs>
  <style type="text/css">
    .fil0 {fill:#2B2A29}
    .fil2 {fill:#2B2A29;fill-rule:nonzero}
    .fil3 {fill:#5B5B5B;fill-rule:nonzero}
    .fil5 {fill:#FECC00;fill-rule:nonzero}
    .fil4 {fill:url(#c)}
    .fil1 {fill:url(#d)}
  </style>
  <linearGradient id="c" y1="50%" y2="50%">
   <stop stop-color="#623620" offset="0"/>
   <stop stop-color="#CC9E20" offset=".12157"/>
   <stop stop-color="#fff" offset=".23922"/>
   <stop stop-color="#CF9A30" offset=".52157"/>
   <stop stop-color="#662D29" offset="1"/>
  </linearGradient>
  <linearGradient id="d" x1="2787.8" x2="18194" y1="10187" y2="10187" gradientUnits="userSpaceOnUse">
   <stop stop-color="#434242" offset="0"/>
   <stop stop-color="#434242" offset=".05098"/>
   <stop stop-color="#C5C6C6" offset=".2"/>
   <stop stop-color="#D9DADA" offset=".27059"/>
   <stop stop-color="#727271" offset=".52157"/>
   <stop stop-color="#2B2A29" offset=".74902"/>
   <stop stop-color="#2B2A29" offset="1"/>
  </linearGradient>
 </defs>
   <path class="fil0" d="m2619 1880c2624-626 5174-1880 7872-1880 2697 0 5247 1254 7871 1880v8322c0 4386-3960 8734-7871 10121-3457-1292-7872-5334-7872-10121v-8322z"/>
   <path class="fil1" d="m2788 2078c2567-610 5064-1830 7703-1830s5135 1220 7703 1830v8143c0 4293-3876 8547-7703 9905-3383-1265-7703-5220-7703-9905v-8143z"/>
   <path class="fil2" d="m0 22764l1572-1918c279-339-1572-602-1572-1053 6994-2971 13988 1981 20982-990l-1338 2093c-179 279 1241 302 1326 774-6994 2971-13976-1877-20970 1094z"/>
   <path class="fil3" d="m196 22594l1543-1764c273-313-1543-554-1543-969 6863-2733 13726 1822 20590-911l-1313 1926c-268 393 1313 296 1313 773-6864 2733-13727-1788-20590 945z"/>
   <path class="fil4" d="m14505 4466c952 1489 1284 3387 307 4942-633 1009-2019 1798-3134 1208 45 49 97 97 155 145 983 809 2506 217 3303-617 1091-1143 1320-2708 1047-4220-129-717 227 194 263 349 33 147 55 298 66 449 81 1765-581 3574-2204 4433-990 523-2459 546-3188-341-4 33-9 67-15 100 474 1147 2058 1384 3149 1065 1516-444 2496-1685 3016-3131 247-685 100 282 53 434-45 144-101 285-166 421-813 1569-2291 2806-4126 2737-759-28-1593-365-2110-933-59 133-130 262-209 386 428 596 1159 1033 1835 1197 1534 374 3004-211 4178-1203 556-471-55 294-172 402-110 102-230 197-354 282-1489 952-3387 1284-4942 307-281-176-545-411-766-681-222 270-486 505-766 681-1556 977-3454 645-4942-307-125-85-244-180-355-282-117-108-727-873-171-402 1173 992 2643 1577 4178 1203 675-164 1406-601 1835-1197-80-124-150-253-209-386-518 568-1352 905-2110 933-1836 69-3313-1168-4126-2737-66-136-122-277-166-421-48-152-194-1119 52-434 520 1446 1501 2687 3017 3131 1091 319 2675 82 3148-1065-5-33-10-67-14-100-729 887-2198 864-3188 341-1624-859-2285-2668-2205-4433 11-151 34-302 67-449 35-155 392-1066 263-349-273 1512-44 3077 1047 4220 796 834 2319 1426 3302 617 59-48 110-96 155-145-1115 590-2500-199-3133-1208-977-1555-645-3453 307-4942 85-125 179-244 282-355 108-117 872-727 402-171-992 1174-1577 2643-1203 4178 273 1121 1296 2395 2551 2186 577-95 1239-933 1191-1339-49-405-465-752-465-1701 0-948 562-2190 1256-2190 693 0 1256 1242 1256 2190 0 949-509 1216-465 1701 44 486 613 1244 1190 1339 1256 209 2279-1065 2552-2186 373-1535-211-3004-1204-4178-470-556 294 54 403 171 102 111 197 230 282 355zm-3884 6617c-53-101-97-206-130-316-33 110-77 215-130 316 25 148 69 291 130 427 61-136 105-279 130-427zm-965-4846l576 352-520-74-56-278zm1644 0l-575 352 520-74 55-278z"/>
   <path class="fil4" d="m14505 4466c952 1489 1284 3387 307 4942-633 1009-2019 1798-3134 1208 45 49 97 97 155 145 983 809 2506 217 3303-617 1091-1143 1320-2708 1047-4220-129-717 227 194 263 349 33 147 55 298 66 449 81 1765-581 3574-2204 4433-990 523-2459 546-3188-341-4 33-9 67-15 100 474 1147 2058 1384 3149 1065 1516-444 2496-1685 3016-3131 247-685 100 282 53 434-45 144-101 285-166 421-813 1569-2291 2806-4126 2737-759-28-1593-365-2110-933-59 133-130 262-209 386 428 596 1159 1033 1835 1197 1534 374 3004-211 4178-1203 556-471-55 294-172 402-110 102-230 197-354 282-1489 952-3387 1284-4942 307-281-176-545-411-766-681-222 270-486 505-766 681-1556 977-3454 645-4942-307-125-85-244-180-355-282-117-108-727-873-171-402 1173 992 2643 1577 4178 1203 675-164 1406-601 1835-1197-80-124-150-253-209-386-518 568-1352 905-2110 933-1836 69-3313-1168-4126-2737-66-136-122-277-166-421-48-152-194-1119 52-434 520 1446 1501 2687 3017 3131 1091 319 2675 82 3148-1065-5-33-10-67-14-100-729 887-2198 864-3188 341-1624-859-2285-2668-2205-4433 11-151 34-302 67-449 35-155 392-1066 263-349-273 1512-44 3077 1047 4220 796 834 2319 1426 3302 617 59-48 110-96 155-145-1115 590-2500-199-3133-1208-977-1555-645-3453 307-4942 85-125 179-244 282-355 108-117 872-727 402-171-992 1174-1577 2643-1203 4178 273 1121 1296 2395 2551 2186 577-95 1239-933 1191-1339-49-405-465-752-465-1701 0-948 562-2190 1256-2190 693 0 1256 1242 1256 2190 0 949-509 1216-465 1701 44 486 613 1244 1190 1339 1256 209 2279-1065 2552-2186 373-1535-211-3004-1204-4178-470-556 294 54 403 171 102 111 197 230 282 355zm-3884 6617c-53-101-97-206-130-316-33 110-77 215-130 316 25 148 69 291 130 427 61-136 105-279 130-427zm-965-4846l576 352-520-74-56-278zm1644 0l-575 352 520-74 55-278z"/>
   <path class="fil5" d="m3393 19779l-4-45 105-1c99-3 163-5 190-6 85-5 150-10 193-15l81-5 7 43c-44 6-85 17-123 34s-57 39-55 66c1 28 35 122 100 282 66 159 136 321 210 487s113 252 118 260l39-122c5-9 15-39 32-87 17-49 30-86 39-112l171-445c-64-128-105-210-124-247-18-36-33-59-42-69-29-37-72-55-127-55l-8-45c51 0 103-1 156-4 135-8 257-19 365-34l4 39c-53 9-91 19-116 31s-40 24-45 35c-5 12-7 25-6 41 1 26 29 108 84 247s120 293 195 464c74 170 123 279 147 325 47-139 94-284 140-436s82-280 108-385 38-174 36-206c-3-61-27-98-69-112s-94-20-154-19l-11-36 119-7c100-2 211-8 333-19l89-6-1 39c-46 7-83 21-112 43s-55 57-79 106c-23 49-49 120-77 214l-188 627c-32 102-51 162-58 180-13 38-23 71-31 100s-18 62-28 100c-11 38-24 82-37 132l-36-3c-24-61-48-124-72-188-25-64-46-119-64-166-18-46-32-79-41-99l-215-503c-10 23-22 52-36 89-14 36-26 64-33 81l-104 274c-26 68-48 131-65 188-18 56-36 119-55 188s-35 129-49 181l-30 2-151-370c-22-56-50-125-83-208s-72-178-117-284c-44-107-85-201-121-282-37-82-66-139-86-171-29-50-60-80-93-92-33-11-71-16-115-14zm2815 744l-560 112c3 70 9 124 18 162 10 39 29 78 58 118 56 76 125 115 206 116 33 0 69-5 108-17 38-12 80-33 127-64l20 26c-131 91-247 135-348 133-106-1-189-43-247-124-59-81-87-175-85-279 2-106 26-195 72-264 47-70 98-120 156-151 57-31 100-47 129-46 33 0 68 6 104 17 36 12 71 33 105 64s62 73 85 127c6 11 12 19 18 23 6 3 17 5 32 5l2 42zm-557 69l147-30c6-2 29-8 68-17 39-8 65-13 79-15 38-8 63-14 74-18 10-3 15-9 16-18 0-11-9-32-26-61-18-29-43-56-76-80-32-25-71-37-116-38-56-1-96 28-120 87-25 58-40 121-46 190zm8596 1368l-45-5c6-103-9-228-45-375 18-5 30-7 37-8 15 57 27 99 36 124 9 26 21 49 36 68 15 20 36 38 64 54 47 28 102 53 164 76 63 23 130 37 203 40 63 3 128-10 193-38 65-29 100-96 104-202 3-54-4-101-21-140-17-40-40-72-69-97s-63-48-102-69c-39-20-90-43-152-70-86-36-157-72-213-108-55-36-98-80-130-130-31-51-45-111-42-182 5-113 50-205 137-275 86-72 205-104 358-97 78 4 155 15 230 36 30 7 49 11 56 11 23 1 45-5 68-20l10-4c6 0 13 2 22 6-3 17-5 34-8 50-3 17-5 35-8 55s-5 36-6 47-3 18-4 22c6 91 8 140 7 148l-34 1c-3-76-25-137-67-182s-90-77-144-95c-55-19-107-28-157-31-124-5-207 23-249 86-43 62-66 122-68 179-3 61 10 111 37 152 28 41 64 74 107 98 44 25 105 54 184 89 89 40 160 76 214 108 53 33 100 79 141 138 40 59 59 131 55 215-3 71-25 135-64 191-40 56-98 99-174 129s-168 43-276 38c-104-5-213-25-324-61-20-5-33-8-37-8-19-1-27 11-24 36zm-7260-2199l2-44c199 18 367 25 504 21 51-2 103 0 158 5 110 10 214 35 312 78 98 42 183 98 256 167 73 70 128 151 165 245 37 93 50 195 40 306-12 135-58 255-138 360-79 105-186 184-321 236-134 53-284 72-448 57-10-1-39-5-88-11s-77-9-85-10c-29-2-55-5-78-6-22-2-55-4-99-7-43-3-85-6-125-9-39-2-67-4-82-5l-108-13 4-43c79 7 128-6 147-39 23-39 49-222 78-550 20-217 32-379 36-487 5-107 0-174-13-202-16-30-55-46-117-49zm1243 762c13-141-10-265-67-373-58-107-136-192-235-253-99-62-203-97-312-107-107-10-205 1-294 32-12 41-29 164-51 370-23 206-41 384-54 533-1 6-3 34-6 84-3 49-7 100-10 151-4 51-6 80-6 88 72 30 128 52 168 65 39 13 89 22 149 28 154 14 283-8 387-66s183-136 236-235c53-100 85-205 95-317zm4842 1015l45-433c-34-7-74-13-119-17 2-6 3-15 5-28 68-33 122-66 161-99 40-32 87-79 143-139l-29 199c63 12 132 21 208 28 36 4 76 6 119 9l-9 68c-39 1-78 0-119-4-4 0-18-2-43-6-25-3-64-8-117-15-14-2-25-1-33 1-7 1-12 6-15 13-4 8-7 22-9 42-4 21-7 43-9 65l-37 347c-8 67-5 123 8 167 12 45 51 70 114 76 25 2 55-1 92-8 37-8 80-21 129-38 1 6 1 10 1 13 0 4 1 7 1 11-28 26-79 50-150 72-72 21-136 30-192 24-48-4-88-24-119-60-32-36-44-95-36-176l10-112zm-4492-656c8-65 27-123 57-173s69-91 116-125c47-33 99-57 158-71 58-14 120-17 184-9 59 7 113 24 162 52 50 27 92 62 127 105 34 42 60 90 76 145 17 54 21 110 14 170-9 76-36 146-81 209-44 63-102 111-174 144s-152 45-239 34c-66-8-132-30-198-67-67-37-120-91-160-161-40-69-54-154-42-253zm152-44c-8 69-2 139 17 211 19 71 51 131 95 181 44 49 95 78 154 85 52 6 101-3 146-26 46-24 84-60 115-110 32-49 52-107 60-174s1-134-21-202c-21-67-55-124-102-171-46-46-101-73-163-81-50-6-97 3-140 25-43 23-79 57-107 103s-46 100-54 159zm3219 474c8-65 27-123 57-173 31-50 69-92 116-125s99-57 158-71 120-17 184-10c59 7 113 25 162 52 50 28 92 63 127 105 35 43 60 91 77 146 16 53 21 110 13 170-9 76-36 146-80 209-45 63-103 111-175 144s-151 45-239 34c-66-8-132-30-198-67-67-38-120-91-160-161s-54-154-42-253zm153-44c-9 69-3 139 16 211 20 71 51 131 95 181 44 49 95 77 154 85 52 6 101-3 146-26 46-24 84-60 116-110 31-49 51-107 59-174s1-134-21-202c-21-67-55-124-102-171-46-46-100-73-162-81-51-6-98 3-141 25-43 23-79 57-107 103s-46 100-53 159zm-1818-1164l6-46c66 14 108 22 127 26 18 3 40 7 66 9l96 8c37 64 81 131 132 202 52 70 110 146 175 228s101 128 109 139l572 706c17-91 38-231 62-418l29-213c15-114 23-200 26-259 2-58-3-102-15-131s-30-50-54-63c-24-12-64-27-123-45l17-30c10 0 28 2 54 5 23 3 46 6 69 10s49 9 80 17c18 4 37 7 57 9 20 3 36 5 49 7l141 16-3 39c-46 1-79 7-100 18-21 12-38 33-50 65-21 59-46 176-75 352-28 176-53 344-74 503-9 63-16 124-23 181-6 58-12 110-16 156-5 46-9 89-11 128l-44-10c-37-117-167-311-392-584l-363-442c-13-12-43-47-90-105-48-59-108-131-180-219l-104 676c-23 139-33 237-30 294 2 57 18 96 48 119 31 22 90 48 179 78-2 16-6 30-11 42-11-1-47-7-106-18-60-11-97-18-109-19-12-2-53-6-123-12-12-1-28-2-48-3s-46-3-79-5c-10-1-17-4-22-9-4-4-5-12-4-21 1-11 4-17 8-19s12-3 25-3c33 1 58-2 73-8 16-6 29-20 41-42s23-57 34-107c11-49 22-113 33-191l77-527c17-116 26-203 27-260 0-57-11-104-33-143-23-38-66-65-130-81zm4972 1485c-1-66 10-125 33-179 23-53 56-100 97-140 42-39 92-70 148-92s117-33 181-34c59-1 115 9 168 29 53 21 99 50 139 87 40 38 72 82 96 134 23 51 36 106 37 166 1 78-16 150-52 219-36 68-87 124-153 166-67 43-144 65-232 66-67 1-135-12-206-40-71-27-131-73-180-137s-74-145-76-245zm145-64c1 69 16 138 45 206s68 124 118 167c51 43 106 64 165 63 52-1 99-17 141-46s75-71 99-124c25-53 37-114 35-180-1-68-17-134-47-198-31-64-72-116-125-155-52-40-109-59-172-58-50 1-96 15-135 43-40 29-71 68-93 117-21 50-32 105-31 165zm1174 490l-36 4c-18-99-79-284-183-554-29-73-53-125-70-157-18-31-34-53-51-65s-41-24-74-35l-2-27c20-4 48-7 85-9 89-5 150-9 184-13 33-3 70-8 110-15l-4 44c-38 7-63 14-77 22-13 8-19 21-18 38 2 39 19 101 51 188 31 86 69 182 113 287l15 30c5-17 8-27 9-32 11-21 28-58 52-110 23-53 46-108 69-166 23-59 39-108 49-148-21-47-40-76-57-88s-46-19-88-23l3-37 110-3c12-1 82-9 209-23l71-7v37c-76 9-112 31-110 68 1 11 15 59 44 144s75 210 138 375c31-68 61-135 88-199 28-64 52-128 74-191 22-64 32-110 30-138-1-22-7-38-16-48-9-11-18-17-28-19s-28-3-51-3v-32c43 0 90-1 140-4 44-2 95-6 153-12 0 13 0 23-1 29-26 8-49 28-71 63-21 34-63 121-127 260l-128 293c-9 14-19 35-30 63-11 30-24 65-38 107-14 41-22 69-24 80l-36 2c-3-14-8-33-17-57-7-25-15-48-22-69l-108-303c-3-7-11-29-27-69-15-39-29-74-41-106l-199 476c-37 96-58 147-63 152z"/>
</svg>